<svg version="1.1" xmlns="http://www.w3.org/2000/svg" xmlns:xlink="http://www.w3.org/1999/xlink" viewBox="0 0 172 172"><g fill="none" fill-rule="nonzero" stroke="none" stroke-width="1" stroke-linecap="butt" stroke-linejoin="miter" stroke-miterlimit="10" stroke-dasharray="" stroke-dashoffset="0" font-family="none" font-weight="none" font-size="none" text-anchor="none" style="mix-blend-mode: normal"><path d="M0,172v-172h172v172z" fill="none"></path><g fill="#000000"><path d="M107.36563,112.60625c-6.85313,-2.41875 -13.975,-3.7625 -21.36563,-3.7625v0v0c-22.0375,0 -42.4625,11.95938 -53.34687,31.04063c-1.075,1.88125 -0.40313,4.43437 1.47813,5.50937c0.67188,0.40312 1.34375,0.5375 2.01563,0.5375c1.34375,0 2.82187,-0.67187 3.49375,-2.01562c9.54062,-16.6625 27.27813,-27.00938 46.35938,-27.00938v0v0c6.31562,0 12.63125,1.075 18.54375,3.35938c0.40312,0.13437 0.94062,0.26875 1.34375,0.26875c1.6125,0 3.225,-0.94062 3.7625,-2.6875c0.80625,-2.15 -0.26875,-4.43437 -2.28437,-5.24062zM86,36.28125c-17.06562,0 -30.90625,13.84062 -30.90625,30.90625c0,17.06562 13.84063,30.90625 30.90625,30.90625c17.06562,0 30.90625,-13.84063 30.90625,-30.90625c0,-17.06563 -13.84063,-30.90625 -30.90625,-30.90625zM86,90.03125c-12.63125,0 -22.84375,-10.2125 -22.84375,-22.84375c0,-12.63125 10.2125,-22.84375 22.84375,-22.84375c12.63125,0 22.84375,10.2125 22.84375,22.84375c0,12.63125 -10.2125,22.84375 -22.84375,22.84375zM123.49063,123.49063c-10.48125,10.48125 -10.48125,27.54687 0,38.02813c10.48125,10.48125 27.54687,10.48125 38.02813,0c10.48125,-10.48125 10.48125,-27.54687 0,-38.02813c-10.61563,-10.61563 -27.54687,-10.61563 -38.02813,0zM151.70938,146.46875h-5.375v5.375c0,2.28438 -1.74687,4.03125 -4.03125,4.03125c-2.28437,0 -4.03125,-1.74687 -4.03125,-4.03125v-5.375h-5.375c-2.28437,0 -4.03125,-1.74687 -4.03125,-4.03125c0,-2.28438 1.74688,-4.03125 4.03125,-4.03125h5.375v-5.375c0,-2.28438 1.74688,-4.03125 4.03125,-4.03125c2.28438,0 4.03125,1.74687 4.03125,4.03125v5.375h5.375c2.28438,0 4.03125,1.74687 4.03125,4.03125c0,2.28438 -1.74687,4.03125 -4.03125,4.03125z"></path></g></g></svg>