<svg xmlns="http://www.w3.org/2000/svg" viewBox="0 0 95.61 119.74"><defs><style>.cls-1{fill:none;stroke:#000;stroke-miterlimit:10;stroke-width:13px;}.cls-2{fill:#fff;}</style></defs><g id="Layer_2" data-name="Layer 2"><g id="Layer_1-2" data-name="Layer 1"><line class="cls-1" x1="47.14" y1="0.1" x2="48.89" y2="119.65"/><ellipse class="cls-2" cx="47.81" cy="60.02" rx="47.81" ry="45.06"/><path d="M46.65,54.77c-.43,0-1-.08-1.38-.11-1.25-.11-2.44-.21-3.71-.38-1.05-.15-2.82-.33-4.15-.57a34.87,34.87,0,0,1-7.2-2.08,26.58,26.58,0,0,1-2.67-1.29Q20,46.14,20,39.1H82.3V37.56q0-7.66-9.52-12.28T47.5,20.67q-15.75,0-25.27,5T12.7,39.1q0,8.32,9.53,13.42t25.27,5M75,36H20v-.89q.91-4.93,9-8.33A47.46,47.46,0,0,1,47.5,23.5a50.12,50.12,0,0,1,18.69,3.23Q74.05,30,75,34.82Z"/><path d="M37.24,56.92c2.51.34,5.62.81,8.29,1,9.64.85,18.36,2.2,24,5.81,4.31,2.77,6.63,6.11,7.47,9.48a11.44,11.44,0,0,1-3.08,11c-3.18,3.44-8.83,6.45-16.14,8.13A58.65,58.65,0,0,1,34,92.74c-7.45-1.54-13-5-13.52-8.68l-7.5,0c-.18,5.43,8.41,10.55,19.62,12.41a74.85,74.85,0,0,0,33.89-2.58c9.59-3.24,15.76-8.33,18.06-13.66,3-7-.74-14.75-11.39-20a54.48,54.48,0,0,0-12-4.05C55.71,55,47.69,55,42.06,54.4l-.56.38"/></g></g></svg>