<svg xmlns="http://www.w3.org/2000/svg" viewBox="0 0 159.8 159.8"><defs><style>.cls-1{fill:#ffd009;}.cls-2{fill:none;stroke:#002c73;stroke-miterlimit:10;stroke-width:12px;}.cls-3{fill:#002c73;}</style></defs><g id="Layer_2" data-name="Layer 2"><g id="Layer_1-2" data-name="Layer 1"><circle class="cls-1" cx="79.9" cy="79.9" r="79.9"/><line class="cls-2" x1="79.9" y1="19.55" x2="79.9" y2="137.64"/><circle class="cls-1" cx="78.88" cy="78.9" r="47.43"/><path class="cls-3" d="M77.41,75.64c-.43,0-1-.08-1.39-.11-1.24-.11-2.44-.21-3.7-.38-1-.15-2.82-.33-4.16-.57A35.06,35.06,0,0,1,61,72.5a27.67,27.67,0,0,1-2.67-1.29Q50.79,67,50.79,60h62.27V58.43q0-7.66-9.53-12.28T78.26,41.54q-15.75,0-25.28,5T43.46,60q0,8.32,9.52,13.42t25.28,5m27.47-21.5H50.79V56c.6-3.29,3.6-6.06,9-8.33a47.46,47.46,0,0,1,18.5-3.31A50,50,0,0,1,96.94,47.6q7.88,3.32,8.79,8.09Z"/><path class="cls-3" d="M68,77.79c2.51.34,5.63.81,8.3,1,9.63.85,18.35,2.2,24,5.81,4.3,2.77,6.62,6.11,7.47,9.48a11.44,11.44,0,0,1-3.08,11c-3.19,3.44-8.83,6.45-16.14,8.13a58.65,58.65,0,0,1-23.72.38c-7.45-1.54-13-5-13.52-8.68l-7.5,0c-.19,5.44,8.4,10.56,19.61,12.42a74.89,74.89,0,0,0,33.9-2.58c9.58-3.24,15.76-8.33,18-13.67,3-7-.74-14.74-11.38-20a54.84,54.84,0,0,0-12-4c-5.49-1.23-13.51-1.18-19.15-1.82l-.56.38"/></g></g></svg>