<svg version="1.1" xmlns="http://www.w3.org/2000/svg" xmlns:xlink="http://www.w3.org/1999/xlink" viewBox="0 0 172 172"><g fill="none" fill-rule="nonzero" stroke="none" stroke-width="1" stroke-linecap="butt" stroke-linejoin="miter" stroke-miterlimit="10" stroke-dasharray="" stroke-dashoffset="0" font-family="none" font-weight="none" font-size="none" text-anchor="none" style="mix-blend-mode: normal"><path d="M0,172v-172h172v172z" fill="none"></path><g fill="#000000"><path d="M86,16.125c-38.6958,0 -69.875,31.1792 -69.875,69.875c0,38.6958 31.1792,69.875 69.875,69.875c38.6958,0 69.875,-31.1792 69.875,-69.875c0,-7.5166 -1.00781,-15.01221 -3.69531,-22.00391l-8.73437,8.56641c1.0708,4.3042 1.67969,8.6084 1.67969,13.4375c0,32.7959 -26.3291,59.125 -59.125,59.125c-32.7959,0 -59.125,-26.3291 -59.125,-59.125c0,-32.7959 26.3291,-59.125 59.125,-59.125c16.125,0 30.61231,6.42481 40.81641,16.62891l7.55859,-7.55859c-12.3667,-12.3667 -29.5625,-19.82031 -48.375,-19.82031zM146.63672,39.13672l-60.63672,60.63672l-23.01172,-23.01172l-7.72656,7.72656l26.875,26.875l3.86328,3.69531l3.86328,-3.69531l64.5,-64.5z"></path></g></g></svg>