<svg version="1.1" xmlns="http://www.w3.org/2000/svg" xmlns:xlink="http://www.w3.org/1999/xlink" viewBox="0 0 172 172"><g fill="none" fill-rule="nonzero" stroke="none" stroke-width="1" stroke-linecap="butt" stroke-linejoin="miter" stroke-miterlimit="10" stroke-dasharray="" stroke-dashoffset="0" font-family="none" font-weight="none" font-size="none" text-anchor="none" style="mix-blend-mode: normal"><path d="M0,172v-172h172v172z" fill="none"></path><g fill="#ffffff"><path d="M28.66667,14.33333c-7.83362,0 -14.33333,6.49972 -14.33333,14.33333v50.16667c0,7.83362 6.49972,14.33333 14.33333,14.33333h35.83333c7.83362,0 14.33333,-6.49972 14.33333,-14.33333v-50.16667c0,-7.83362 -6.49972,-14.33333 -14.33333,-14.33333zM107.5,14.33333c-7.83362,0 -14.33333,6.49972 -14.33333,14.33333v21.5c0,7.83362 6.49972,14.33333 14.33333,14.33333h35.83333c7.83362,0 14.33333,-6.49972 14.33333,-14.33333v-21.5c0,-7.83362 -6.49972,-14.33333 -14.33333,-14.33333zM28.66667,28.66667h35.83333v50.16667h-35.83333zM107.5,28.66667h35.83333v21.5h-35.83333zM107.5,78.83333c-7.83362,0 -14.33333,6.49972 -14.33333,14.33333v50.16667c0,7.83362 6.49972,14.33333 14.33333,14.33333h35.83333c7.83362,0 14.33333,-6.49972 14.33333,-14.33333v-50.16667c0,-7.83362 -6.49972,-14.33333 -14.33333,-14.33333zM107.5,93.16667h35.83333v50.16667h-35.83333zM28.66667,107.5c-7.83362,0 -14.33333,6.49972 -14.33333,14.33333v21.5c0,7.83362 6.49972,14.33333 14.33333,14.33333h35.83333c7.83362,0 14.33333,-6.49972 14.33333,-14.33333v-21.5c0,-7.83362 -6.49972,-14.33333 -14.33333,-14.33333zM28.66667,121.83333h35.83333v21.5h-35.83333z"></path></g></g></svg>