<svg version="1.1" xmlns="http://www.w3.org/2000/svg" xmlns:xlink="http://www.w3.org/1999/xlink" viewBox="0 0 172 172"><g fill="none" fill-rule="nonzero" stroke="none" stroke-width="1" stroke-linecap="butt" stroke-linejoin="miter" stroke-miterlimit="10" stroke-dasharray="" stroke-dashoffset="0" font-family="none" font-weight="none" font-size="none" text-anchor="none" style="mix-blend-mode: normal"><path d="M0,172v-172h172v172z" fill="none"></path><g fill="#000000"><path d="M35.83333,21.5c-7.90483,0 -14.33333,6.4285 -14.33333,14.33333v100.33333c0,7.90483 6.4285,14.33333 14.33333,14.33333h40.04655c-1.83467,-4.52217 -3.09981,-9.32383 -3.72331,-14.33333h-36.32324v-100.33333h29.89844c2.95983,8.342 10.9229,14.33333 20.26823,14.33333c9.34533,0 17.3084,-5.99133 20.26823,-14.33333h29.89844v36.32324c5.0095,0.6235 9.81117,1.88865 14.33333,3.72331v-40.04655c0,-7.90483 -6.4285,-14.33333 -14.33333,-14.33333h-43v7.16667c0,3.94883 -3.21783,7.16667 -7.16667,7.16667c-3.94883,0 -7.16667,-3.21783 -7.16667,-7.16667v-7.16667zM129,86c-23.65,0 -43,19.35 -43,43c0,23.65 19.35,43 43,43c23.65,0 43,-19.35 43,-43c0,-23.65 -19.35,-43 -43,-43zM129,100.33333c15.76667,0 28.66667,12.9 28.66667,28.66667c0,15.76667 -12.9,28.66667 -28.66667,28.66667c-15.76667,0 -28.66667,-12.9 -28.66667,-28.66667c0,-15.76667 12.9,-28.66667 28.66667,-28.66667zM132.06543,108.33985l-11.46386,21.65397l15.0332,15.0332l7.60059,-7.60059l-9.42025,-9.42025l7.75456,-14.64128z"></path></g></g></svg>