<svg version="1.1" xmlns="http://www.w3.org/2000/svg" xmlns:xlink="http://www.w3.org/1999/xlink" viewBox="0 0 172 172"><g fill="none" fill-rule="nonzero" stroke="none" stroke-width="1" stroke-linecap="butt" stroke-linejoin="miter" stroke-miterlimit="10" stroke-dasharray="" stroke-dashoffset="0" font-family="none" font-weight="none" font-size="none" text-anchor="none" style="mix-blend-mode: normal"><path d="M0,172v-172h172v172z" fill="none"></path><g fill="#000000"><path d="M86,10.2041l-2.25708,1.03931c-23.28959,10.74987 -46.58484,21.49987 -69.875,32.25l4.51416,9.76318c22.5376,-10.40277 45.07945,-20.80768 67.61792,-31.21069c22.53847,10.40302 45.08032,20.80792 67.61792,31.21069l4.51416,-9.76318c-23.29016,-10.75013 -46.58541,-21.50013 -69.875,-32.25zM48.375,53.75c-8.51041,0 -15.57733,3.38494 -20.14575,8.52442c-4.56842,5.13947 -6.72925,11.78114 -6.72925,18.35058c0,6.56944 2.16083,13.21111 6.72925,18.35058c0.85602,0.96302 2.19857,1.49107 3.2229,2.32007c-12.11522,6.27372 -20.70215,18.58082 -20.70215,33.07935h10.75c0,-14.80568 12.06932,-26.875 26.875,-26.875c7.41107,0 13.45172,2.52633 18.15112,7.17016c-1.27083,2.73694 -2.02612,5.75646 -2.02612,8.95484c0,6.00124 2.51933,11.43515 6.52979,15.34815c-7.16381,4.84556 -11.90479,13.04552 -11.90479,22.27685h10.75c0,-8.89318 7.23182,-16.125 16.125,-16.125c8.89318,0 16.125,7.23182 16.125,16.125h10.75c0,-9.23134 -4.74098,-17.43129 -11.90479,-22.27685c4.01046,-3.913 6.52979,-9.3469 6.52979,-15.34815c0,-3.19838 -0.75529,-6.21789 -2.02612,-8.95484c4.6994,-4.64384 10.74006,-7.17016 18.15112,-7.17016c14.80568,0 26.875,12.06932 26.875,26.875h10.75c0,-14.49852 -8.58693,-26.80563 -20.70215,-33.07935c1.02432,-0.829 2.36688,-1.35705 3.2229,-2.32007c4.56842,-5.13947 6.72925,-11.78114 6.72925,-18.35058c0,-6.56944 -2.16083,-13.21111 -6.72925,-18.35058c-4.56842,-5.13948 -11.63534,-8.52442 -20.14575,-8.52442c-8.51041,0 -15.57733,3.38494 -20.14575,8.52442c-4.56842,5.13947 -6.72925,11.78114 -6.72925,18.35058c0,6.56944 2.16083,13.21111 6.72925,18.35058c0.7913,0.89022 2.04588,1.36522 2.98145,2.1416c-2.7802,1.45482 -5.371,3.23724 -7.72656,5.31201c-3.58128,-2.66711 -7.95943,-4.3042 -12.73413,-4.3042c-4.7747,0 -9.15286,1.63709 -12.73413,4.3042c-2.35557,-2.07477 -4.94637,-3.85719 -7.72656,-5.31201c0.93557,-0.77638 2.19015,-1.25139 2.98145,-2.1416c4.56842,-5.13947 6.72925,-11.78114 6.72925,-18.35058c0,-6.56944 -2.16083,-13.21111 -6.72925,-18.35058c-4.56842,-5.13948 -11.63534,-8.52442 -20.14575,-8.52442zM48.375,64.5c5.82291,0 9.506,1.99006 12.10425,4.91308c2.59824,2.92303 4.02075,7.03136 4.02075,11.21192c0,4.18056 -1.42251,8.28889 -4.02075,11.21192c-2.59824,2.92302 -6.28133,4.91308 -12.10425,4.91308c-5.82291,0 -9.50601,-1.99006 -12.10425,-4.91308c-2.59824,-2.92303 -4.02075,-7.03136 -4.02075,-11.21192c0,-4.18056 1.42251,-8.28889 4.02075,-11.21192c2.59824,-2.92302 6.28134,-4.91308 12.10425,-4.91308zM123.625,64.5c5.82291,0 9.506,1.99006 12.10425,4.91308c2.59824,2.92303 4.02075,7.03136 4.02075,11.21192c0,4.18056 -1.42251,8.28889 -4.02075,11.21192c-2.59824,2.92302 -6.28133,4.91308 -12.10425,4.91308c-5.82291,0 -9.506,-1.99006 -12.10425,-4.91308c-2.59824,-2.92303 -4.02075,-7.03136 -4.02075,-11.21192c0,-4.18056 1.42251,-8.28889 4.02075,-11.21192c2.59824,-2.92302 6.28133,-4.91308 12.10425,-4.91308zM86,112.875c6.00208,0 10.75,4.74792 10.75,10.75c0,6.00208 -4.74792,10.75 -10.75,10.75c-6.00208,0 -10.75,-4.74792 -10.75,-10.75c0,-6.00208 4.74792,-10.75 10.75,-10.75z"></path></g></g></svg>