<svg version="1.1" xmlns="http://www.w3.org/2000/svg" xmlns:xlink="http://www.w3.org/1999/xlink" viewBox="0 0 172 172"><g fill="none" fill-rule="nonzero" stroke="none" stroke-width="1" stroke-linecap="butt" stroke-linejoin="miter" stroke-miterlimit="10" stroke-dasharray="" stroke-dashoffset="0" font-family="none" font-weight="none" font-size="none" text-anchor="none" style="mix-blend-mode: normal"><path d="M0,172v-172h172v172z" fill="none"></path><g fill="#ffffff"><path d="M48.16,6.88c-9.46,0 -17.2,7.74 -17.2,17.2c0,9.46 7.74,17.2 17.2,17.2c9.46,0 17.2,-7.74 17.2,-17.2c0,-9.46 -7.74,-17.2 -17.2,-17.2zM120.4,6.88c-9.46,0 -17.2,7.74 -17.2,17.2c0,9.46 7.74,17.2 17.2,17.2c9.46,0 17.2,-7.74 17.2,-17.2c0,-9.46 -7.74,-17.2 -17.2,-17.2zM48.16,13.76c5.73781,0 10.32,4.58219 10.32,10.32c0,5.73781 -4.58219,10.32 -10.32,10.32c-5.73781,0 -10.32,-4.58219 -10.32,-10.32c0,-5.73781 4.58219,-10.32 10.32,-10.32zM120.4,13.76c5.73781,0 10.32,4.58219 10.32,10.32c0,5.73781 -4.58219,10.32 -10.32,10.32c-5.73781,0 -10.32,-4.58219 -10.32,-10.32c0,-5.73781 4.58219,-10.32 10.32,-10.32zM32.68,44.72c-10.40062,0 -18.92,8.51938 -18.92,18.92v42.355c-0.02687,0.215 -0.02687,0.43 0,0.645c-0.01344,0.3225 0.02688,0.65844 0.1075,0.9675c0.51063,5.20031 4.89125,9.3525 10.2125,9.3525c1.20938,0 2.35156,-0.25531 3.44,-0.645v39.6675c0,5.02563 4.11188,9.1375 9.1375,9.1375h5.805c2.21719,0 4.09844,-1.03469 5.6975,-2.365c1.59906,1.33031 3.48031,2.365 5.6975,2.365h5.805c5.02563,0 9.1375,-4.11187 9.1375,-9.1375v-22.4675c1.08844,0.38969 2.23063,0.645 3.44,0.645v22.36c0,4.70313 3.89688,8.6 8.6,8.6h10.32c4.70313,0 8.6,-3.89687 8.6,-8.6v-22.36c1.20938,0 2.35156,-0.25531 3.44,-0.645v21.285c0,5.65719 4.66281,10.32 10.32,10.32c2.63375,0 5.0525,-1.03469 6.88,-2.6875c1.8275,1.65281 4.24625,2.6875 6.88,2.6875c5.65719,0 10.32,-4.66281 10.32,-10.32v-27.52h8.9225c2.2575,0 4.39406,-1.16906 5.59,-3.01c0,-0.04031 0,-0.06719 0,-0.1075c1.19594,-1.85437 1.46469,-4.07156 0.86,-6.1275c0,-0.04031 0,-0.06719 0,-0.1075l-1.3975,-4.4075c3.48031,0 6.62469,-1.69312 8.2775,-4.4075c1.65281,-2.71437 1.90813,-6.10062 0.86,-9.3525c-3.15781,-9.75562 -13.8675,-42.355 -13.8675,-42.355c-0.645,-1.98875 -1.85437,-4.93156 -4.4075,-7.6325c-2.55312,-2.70094 -6.58437,-5.0525 -11.7175,-5.0525h-6.665c-0.06719,0 -0.14781,0 -0.215,0h-13.76c-5.14656,0 -9.16437,2.35156 -11.7175,5.0525c-1.30344,1.3975 -1.23625,3.58781 0.16125,4.89125c1.3975,1.30344 3.58781,1.23625 4.89125,-0.16125c1.55875,-1.66625 3.48031,-2.9025 6.665,-2.9025h13.76c0.1075,0 0.215,0 0.3225,0h6.5575c3.17125,0 5.10625,1.24969 6.665,2.9025c1.55875,1.65281 2.62031,3.82969 3.01,5.0525c0,0 10.60219,32.51875 13.76,42.2475c0.55094,1.69313 0.3225,2.95625 -0.1075,3.655c-0.43,0.69875 -0.99437,1.1825 -2.4725,1.1825c-1.42437,0 -2.66062,-0.92719 -3.1175,-2.15c-0.01344,-0.02687 0.01344,-0.08062 0,-0.1075c-0.05375,-0.33594 -0.16125,-0.65844 -0.3225,-0.9675l-9.5675,-28.81c-0.51062,-1.59906 -2.09625,-2.60687 -3.7625,-2.365c-1.02125,0.13438 -1.92156,0.72563 -2.45906,1.59906c-0.55094,0.87344 -0.67187,1.94844 -0.33594,2.91594l9.675,29.025c0.06719,0.29563 0.17469,0.59125 0.3225,0.86l4.4075,13.4375v0.1075c0.01344,0.1075 -0.09406,0.16125 -0.1075,0.215h-25.6925c-0.06719,0 -0.14781,0 -0.215,0h-10.32v-20.64c0,-7.56531 -6.19469,-13.76 -13.76,-13.76h-20.64c-7.56531,0 -13.76,6.19469 -13.76,13.76v6.3425c0,0.1075 0,0.215 0,0.3225v49.5575c0,1.31688 -0.95406,2.2575 -2.2575,2.2575h-5.805c-1.31687,0 -2.2575,-0.94062 -2.2575,-2.2575v-43.645c0.01344,-0.99437 -0.41656,-1.935 -1.15562,-2.59344c-0.73906,-0.65844 -1.73344,-0.9675 -2.71438,-0.84656c-1.73344,0.215 -3.02344,1.69313 -3.01,3.44v43.645c0,1.31688 -0.95406,2.2575 -2.2575,2.2575h-5.805c-1.31687,0 -2.2575,-0.94062 -2.2575,-2.2575v-83.7425c0.04031,-0.99437 -0.36281,-1.94844 -1.075,-2.62031c-0.72562,-0.68531 -1.70656,-1.02125 -2.6875,-0.92719c-0.14781,0.02688 -0.29562,0.06719 -0.43,0.1075c-1.59906,0.36281 -2.72781,1.80063 -2.6875,3.44v33.8625c0,0.1075 0,0.215 0,0.3225v0.215c0,1.94844 -1.49156,3.44 -3.44,3.44c-1.86781,0 -3.3325,-1.38406 -3.44,-3.225c0,-0.06719 0,-0.14781 0,-0.215c0.02688,-0.215 0.02688,-0.43 0,-0.645v-42.355c0,-6.665 5.36156,-12.04 12.04,-12.04h30.96c2.58,0 4.93156,0.77938 6.88,2.15c0.99438,0.83313 2.365,1.03469 3.5475,0.52406c1.19594,-0.51063 2.00219,-1.63938 2.08281,-2.92938c0.09406,-1.29 -0.55094,-2.51281 -1.65281,-3.18469c-3.06375,-2.15 -6.83969,-3.44 -10.8575,-3.44zM86,55.04c-7.56531,0 -13.76,6.19469 -13.76,13.76c0,7.56531 6.19469,13.76 13.76,13.76c7.56531,0 13.76,-6.19469 13.76,-13.76c0,-7.56531 -6.19469,-13.76 -13.76,-13.76zM86,61.92c3.84313,0 6.88,3.03688 6.88,6.88c0,3.84313 -3.03687,6.88 -6.88,6.88c-3.84312,0 -6.88,-3.03687 -6.88,-6.88c0,-3.84312 3.03688,-6.88 6.88,-6.88zM75.68,92.88h20.64c3.84313,0 6.88,3.03688 6.88,6.88v23.435c0,0.1075 0,0.215 0,0.3225v0.3225c0,1.94844 -1.49156,3.44 -3.44,3.44h-3.44c-1.89469,0 -3.44,1.54531 -3.44,3.44v25.8c0,0.98094 -0.73906,1.72 -1.72,1.72h-10.32c-0.98094,0 -1.72,-0.73906 -1.72,-1.72v-25.8c0,-1.89469 -1.54531,-3.44 -3.44,-3.44h-3.44c-1.94844,0 -3.44,-1.49156 -3.44,-3.44v-24.08c0,-3.84312 3.03688,-6.88 6.88,-6.88zM110.08,127.28h6.88v27.52c0,1.94844 -1.49156,3.44 -3.44,3.44c-1.94844,0 -3.44,-1.49156 -3.44,-3.44zM123.84,127.28h6.88v27.52c0,1.94844 -1.49156,3.44 -3.44,3.44c-1.94844,0 -3.44,-1.49156 -3.44,-3.44z"></path></g></g></svg>