<svg version="1.1" xmlns="http://www.w3.org/2000/svg" xmlns:xlink="http://www.w3.org/1999/xlink" viewBox="0 0 172 172"><g fill="none" fill-rule="nonzero" stroke="none" stroke-width="1" stroke-linecap="butt" stroke-linejoin="miter" stroke-miterlimit="10" stroke-dasharray="" stroke-dashoffset="0" font-family="none" font-weight="none" font-size="none" text-anchor="none" style="mix-blend-mode: normal"><path d="M0,172v-172h172v172z" fill="none"></path><g fill="#000000"><path d="M86.02239,17.2c-38.00627,0 -68.82239,30.8052 -68.82239,68.8c0,37.9948 30.81613,68.8 68.82239,68.8c57.39067,0 70.32032,-53.27987 64.93672,-80.26667h-7.62578h-13.00078h-44.33255v22.93333h44.36614c-5.10025,19.76997 -23.004,34.4 -44.36614,34.4c-25.32987,0 -45.86667,-20.5368 -45.86667,-45.86667c0,-25.32987 20.5368,-45.86667 45.86667,-45.86667c11.51827,0 22.01108,4.27563 30.06641,11.2875l16.29297,-16.28177c-12.23494,-11.1456 -28.48912,-17.93906 -46.33698,-17.93906z"></path></g></g></svg>