<svg version="1.1" xmlns="http://www.w3.org/2000/svg" xmlns:xlink="http://www.w3.org/1999/xlink" viewBox="0 0 172 172"><g fill="none" fill-rule="nonzero" stroke="none" stroke-width="1" stroke-linecap="butt" stroke-linejoin="miter" stroke-miterlimit="10" stroke-dasharray="" stroke-dashoffset="0" font-family="none" font-weight="none" font-size="none" text-anchor="none" style="mix-blend-mode: normal"><path d="M0,172v-172h172v172z" fill="none"></path><g fill="#ffffff"><path d="M86,36.28125c-17.06562,0 -30.90625,13.84062 -30.90625,30.90625c0,17.06562 13.84063,30.90625 30.90625,30.90625c17.06562,0 30.90625,-13.84063 30.90625,-30.90625c0,-17.06563 -13.84063,-30.90625 -30.90625,-30.90625zM86,44.34375c12.63125,0 22.84375,10.2125 22.84375,22.84375c0,12.63125 -10.2125,22.84375 -22.84375,22.84375c-12.63125,0 -22.84375,-10.2125 -22.84375,-22.84375c0,-12.63125 10.2125,-22.84375 22.84375,-22.84375zM46.35938,49.8526c-14.24375,0.80625 -25.53125,12.90053 -25.53125,27.41303c0,15.18438 12.3625,27.54688 27.54688,27.54688c4.97188,0 9.8099,-1.34428 13.97553,-3.8974c1.88125,-1.075 2.55312,-3.6276 1.34375,-5.50885c-1.075,-1.88125 -3.6276,-2.55313 -5.50885,-1.34375c-2.95625,1.74688 -6.45052,2.6875 -9.94427,2.6875c-10.75,0 -19.48437,-8.73437 -19.48437,-19.48437c0,-10.2125 7.92813,-18.67865 18.14063,-19.35053c2.28438,-0.13437 3.8953,-2.01457 3.76093,-4.29895c-0.13438,-2.28437 -2.01458,-3.89793 -4.29895,-3.76355zM125.50678,49.8526c-2.15,-0.13437 -4.1672,1.47918 -4.30157,3.76355c-0.13437,2.28438 1.47917,4.16457 3.76355,4.29895c10.2125,0.67188 18.14063,9.13803 18.14063,19.35053c0,10.75 -8.73437,19.48438 -19.48437,19.48438c-3.49375,0 -6.98803,-0.94062 -9.94428,-2.6875c-1.88125,-1.075 -4.43385,-0.5375 -5.50885,1.34375c-1.075,1.88125 -0.5375,4.43385 1.34375,5.50885c4.16562,2.55313 9.13803,3.8974 13.97553,3.8974c15.31875,-0.13437 27.68072,-12.3625 27.68072,-27.54687c0,-14.37813 -11.28698,-26.4724 -25.6651,-27.41303zM86,109.38178c-22.0375,0 -42.46145,11.95885 -53.34583,31.0401c-1.075,2.01563 -0.40417,4.43385 1.61145,5.50885c0.67188,0.40312 1.34375,0.53802 2.01563,0.53802c1.34375,0 2.82135,-0.67187 3.49322,-2.01562c9.40625,-16.6625 27.14375,-27.00885 46.35938,-27.00885c19.08125,0 36.81875,10.34635 46.35938,27.00885c1.075,1.88125 3.49323,2.5526 5.50885,1.4776c1.88125,-1.075 2.55522,-3.49323 1.48022,-5.50885c-11.01875,-19.08125 -31.4448,-31.0401 -53.4823,-31.0401zM34.67242,114.90375c-0.26927,0.01417 -0.54222,0.05354 -0.81097,0.12073c-13.70625,3.89688 -25.5302,13.16928 -32.5177,25.3974c-1.075,2.01563 -0.40365,4.43385 1.4776,5.50885c0.67188,0.40312 1.34375,0.53802 2.01563,0.53802c1.34375,0 2.82135,-0.67187 3.49323,-2.01562c5.9125,-10.48125 15.99272,-18.40885 27.68335,-21.63385c2.15,-0.5375 3.35885,-2.82345 2.82135,-4.97345c-0.47031,-1.88125 -2.27755,-3.04128 -4.16248,-2.94208zM137.32758,114.90375c-1.88493,-0.09921 -3.69217,1.06083 -4.16248,2.94208c-0.5375,2.15 0.67135,4.43595 2.82135,4.97345c11.55625,3.225 21.63647,11.1526 27.68335,21.63385c0.80625,1.34375 2.14948,2.01563 3.49323,2.01563c0.67188,0 1.34375,-0.1349 2.01563,-0.53802c1.88125,-1.075 2.5526,-3.49323 1.4776,-5.50885c-6.9875,-12.22813 -18.81145,-21.50053 -32.5177,-25.3974c-0.26875,-0.06719 -0.54169,-0.10655 -0.81097,-0.12073z"></path></g></g></svg>