<svg version="1.1" xmlns="http://www.w3.org/2000/svg" xmlns:xlink="http://www.w3.org/1999/xlink" viewBox="0 0 172 172"><g fill="none" fill-rule="nonzero" stroke="none" stroke-width="1" stroke-linecap="butt" stroke-linejoin="miter" stroke-miterlimit="10" stroke-dasharray="" stroke-dashoffset="0" font-family="none" font-weight="none" font-size="none" text-anchor="none" style="mix-blend-mode: normal"><path d="M0,172v-172h172v172z" fill="none"></path><g fill="#ffffff"><path d="M57.33333,16.08558c9.32107,4.60236 14.83739,14.47728 13.86911,24.82748c-0.96828,10.35019 -8.22049,19.03059 -18.23347,21.82421c-10.01298,2.79362 -20.71155,-0.87851 -26.89828,-9.23245c-6.18674,-8.35394 -6.57945,-19.65835 -0.98735,-28.42149c0,0 NaN,NaN NaN,NaNcNaN,NaN NaN,NaN NaN,NaNzM69.875,121.83333v-34.04167c0,-4.68342 1.52292,-9.0085 4.07067,-12.54167h-39.904c-6.91583,0 -12.54167,5.62583 -12.54167,12.54167v26.875c0,19.7585 16.07483,35.83333 35.83333,35.83333c7.00183,0 13.5235,-2.04967 19.049,-5.53625c-4.10292,-6.76175 -6.50733,-14.65942 -6.50733,-23.13042zM114.66667,159.45833c-20.7475,0 -37.625,-16.8775 -37.625,-37.625v-34.04167c0,-7.90483 6.4285,-14.33333 14.33333,-14.33333h46.58333c7.90483,0 14.33333,6.4285 14.33333,14.33333v34.04167c0,20.7475 -16.8775,37.625 -37.625,37.625zM91.375,87.79167v34.04167c0,12.84267 10.449,23.29167 23.29167,23.29167c12.84267,0 23.29167,-10.449 23.29167,-23.29167v-34.04167zM114.66667,68.08333c-13.82808,0 -25.08333,-11.25525 -25.08333,-25.08333c0,-13.82808 11.25525,-25.08333 25.08333,-25.08333c13.82808,0 25.08333,11.25525 25.08333,25.08333c0,13.82808 -11.25525,25.08333 -25.08333,25.08333zM114.66667,32.25c-5.92683,0 -10.75,4.82317 -10.75,10.75c0,5.92683 4.82317,10.75 10.75,10.75c5.92683,0 10.75,-4.82317 10.75,-10.75c0,-5.92683 -4.82317,-10.75 -10.75,-10.75z"></path></g></g></svg>