<svg version="1.1" xmlns="http://www.w3.org/2000/svg" xmlns:xlink="http://www.w3.org/1999/xlink" viewBox="0 0 172 172"><g fill="none" fill-rule="nonzero" stroke="none" stroke-width="1" stroke-linecap="butt" stroke-linejoin="miter" stroke-miterlimit="10" stroke-dasharray="" stroke-dashoffset="0" font-family="none" font-weight="none" font-size="none" text-anchor="none" style="mix-blend-mode: normal"><path d="M0,172v-172h172v172z" fill="none"></path><g fill="#ffffff"><path d="M71.66667,11.46667c-11.08253,0 -20.06667,8.98413 -20.06667,20.06667c0,5.6244 2.33141,10.69267 6.05808,14.33333h28.02838c3.72093,-3.64067 6.04688,-8.70893 6.04688,-14.33333c0,-11.08253 -8.98413,-20.06667 -20.06667,-20.06667zM143.33333,45.86667l-26.56146,8.85755c-5.6936,-2.72278 -11.91296,-4.86904 -18.54376,-6.34922c-1.29573,2.0296 -2.75809,3.95708 -4.52396,5.68854l-3.34817,3.26979h-37.37865l-3.34818,-3.26979c-1.204,-1.18107 -2.20527,-2.48862 -3.19141,-3.80729c-14.13555,5.19912 -24.27912,15.14022 -27.79323,30.20078c-0.47146,-0.12463 -0.95688,-0.1886 -1.44453,-0.19036c-3.16643,0 -5.73333,2.5669 -5.73333,5.73333c0,3.16643 2.5669,5.73333 5.73333,5.73333c0.01866,0.00009 0.03733,0.00009 0.05599,0c-0.00339,0.2642 -0.05599,0.49482 -0.05599,0.76146c0,8.58314 2.20138,17.13803 6.39401,24.91537l5.27422,31.62292c0.5504,3.33107 3.42047,5.76692 6.78594,5.76692h15.88984c3.3712,0 6.24673,-2.43586 6.79713,-5.76692l0.59349,-3.53854c7.22086,2.25232 15.26817,3.57214 24.1987,3.57214c6.5022,0 12.71654,-0.58854 18.58854,-1.65729l3.12421,4.79271c1.06067,1.62253 2.86604,2.59792 4.80391,2.59792h16.48333c3.61773,0 6.33229,-3.30419 5.62136,-6.85312l-2.25078,-11.20912c6.61897,-4.42661 11.79415,-9.94995 15.16198,-16.38255h4.93828c3.1648,0 5.92236,-2.1509 6.69636,-5.21823l4.03125,-16.14739c0.87147,-3.4916 -1.08449,-7.07288 -4.50156,-8.20808l-8.82396,-2.94505c-2.09041,-7.12148 -5.74154,-13.38073 -10.58203,-18.76771c3.6562,-5.63017 6.90911,-13.27357 6.90911,-23.20208zM123.26667,80.26667c4.7472,0 8.6,3.8528 8.6,8.6c0,4.7472 -3.8528,8.6 -8.6,8.6c-4.7472,0 -8.6,-3.8528 -8.6,-8.6c0,-4.7472 3.8528,-8.6 8.6,-8.6z"></path></g></g></svg>