<svg version="1.1" xmlns="http://www.w3.org/2000/svg" xmlns:xlink="http://www.w3.org/1999/xlink" viewBox="0 0 172 172"><g fill="none" fill-rule="nonzero" stroke="none" stroke-width="1" stroke-linecap="butt" stroke-linejoin="miter" stroke-miterlimit="10" stroke-dasharray="" stroke-dashoffset="0" font-family="none" font-weight="none" font-size="none" text-anchor="none" style="mix-blend-mode: normal"><path d="M0,172v-172h172v172z" fill="none"></path><g fill="#ffffff"><path d="M22.93333,28.66667c-6.26689,0 -11.46667,5.19977 -11.46667,11.46667v28.66667h11.46667v-28.66667h74.53333v91.73333h-74.53333v-28.66667h-11.46667v28.66667c0,6.26689 5.19977,11.46667 11.46667,11.46667h5.73333c0,3.1648 2.56853,5.73333 5.73333,5.73333h5.73333c3.1648,0 5.73333,-2.56853 5.73333,-5.73333h80.26667c0,3.1648 2.56853,5.73333 5.73333,5.73333h5.73333c3.1648,0 5.73333,-2.56853 5.73333,-5.73333h5.73333c6.26689,0 11.46667,-5.19977 11.46667,-11.46667v-91.73333c0,-6.26689 -5.19977,-11.46667 -11.46667,-11.46667zM131.86667,51.6c9.50013,0 17.2,15.39973 17.2,34.4c0,19.00027 -7.69987,34.4 -17.2,34.4c-9.50013,0 -17.2,-15.39973 -17.2,-34.4c0,-19.00027 7.69987,-34.4 17.2,-34.4zM45.86667,57.33333c-1.4663,0 -2.93278,0.55882 -4.05365,1.67969c-2.24173,2.24173 -2.24173,5.86556 0,8.10729l13.14635,13.14636h-37.75938c-3.17053,0 -5.73333,2.5628 -5.73333,5.73333c0,3.17053 2.5628,5.73333 5.73333,5.73333h37.75938l-13.14635,13.14636c-2.24173,2.24173 -2.24173,5.86556 0,8.10729c1.118,1.118 2.58591,1.67969 4.05365,1.67969c1.46773,0 2.93565,-0.56169 4.05365,-1.67969l22.92213,-22.93333c0.52747,-0.52747 0.96177,-1.15366 1.25417,-1.85886c0.57907,-1.39893 0.57907,-2.98518 0,-4.37838c-0.2924,-0.71093 -0.72097,-1.34259 -1.25417,-1.87005l-22.92213,-22.93333c-1.12087,-1.12087 -2.58735,-1.67969 -4.05365,-1.67969zM131.86667,68.8c-3.1648,0 -5.73333,7.69987 -5.73333,17.2c0,9.50013 2.56853,17.2 5.73333,17.2c3.1648,0 5.73333,-7.69987 5.73333,-17.2c0,-9.50013 -2.56853,-17.2 -5.73333,-17.2z"></path></g></g></svg>