<svg version="1.1" xmlns="http://www.w3.org/2000/svg" xmlns:xlink="http://www.w3.org/1999/xlink" viewBox="0 0 172 172"><g fill="none" fill-rule="nonzero" stroke="none" stroke-width="1" stroke-linecap="butt" stroke-linejoin="miter" stroke-miterlimit="10" stroke-dasharray="" stroke-dashoffset="0" font-family="none" font-weight="none" font-size="none" text-anchor="none" style="mix-blend-mode: normal"><path d="M0,172v-172h172v172z" fill="none"></path><g fill="#ffffff"><path d="M121.83333,14.34033c-3.05837,0 -6.11412,0.37088 -9.21729,1.11979c-2.22883,0.53392 -3.87907,2.43112 -4.10124,4.71012l-0.14697,1.51172c-0.16842,1.72358 -1.15809,3.26906 -2.65951,4.13623c-1.50142,0.86358 -3.33659,0.96179 -4.90609,0.23796l-1.39274,-0.62988c-2.07475,-0.94242 -4.5472,-0.47289 -6.12386,1.18978c-4.29283,4.515 -7.49661,10.0372 -9.24528,15.96403c-0.65217,2.19658 0.1697,4.55991 2.03662,5.89291l1.25277,0.89583c1.40825,1.01408 2.25358,2.65043 2.25358,4.38118c0,0.91733 -0.24887,1.80135 -0.67887,2.58252l0.67188,4.14323l5.17204,-1.95964c1.419,-0.53392 2.90401,-0.80485 4.41618,-0.80485c0.19708,0 0.39081,0.05224 0.58789,0.06299c0.344,-1.30792 0.58089,-2.64467 0.58089,-4.02425c0,-4.3215 -1.74536,-8.44004 -4.76611,-11.44287c0.86,-1.96725 1.95057,-3.84005 3.2334,-5.57796c4.1065,1.11442 8.54171,0.56505 12.28271,-1.5957c3.741,-2.16075 6.44126,-5.73692 7.5306,-9.85417c2.18225,-0.258 4.25997,-0.258 6.4458,0c1.08575,4.11725 3.77902,7.69342 7.5236,9.85417c3.73742,2.16433 8.16905,2.71012 12.28271,1.5957c1.28283,1.73433 2.3734,3.61071 3.2334,5.57796c-3.02075,3.00642 -4.76611,7.12137 -4.76611,11.44287c0,4.3215 1.74536,8.44004 4.76611,11.44287c-0.86,1.96725 -1.95057,3.84005 -3.2334,5.57796c-4.1065,-1.11442 -8.54171,-0.56505 -12.28271,1.5957c-3.74458,2.16075 -6.44126,5.73692 -7.5306,9.85417c-1.23267,0.14692 -2.42832,0.18589 -3.63232,0.16797c0.61275,1.6125 1.17528,3.23659 1.64469,4.89209c0.54467,1.92425 0.59287,3.9065 0.23096,5.79492c2.55492,-0.10033 5.15289,-0.40872 7.76156,-1.03581c2.22525,-0.53392 3.87207,-2.43112 4.09424,-4.71012l0.14697,-1.51872c0.16842,-1.72358 1.15809,-3.26207 2.65951,-4.12923c1.505,-0.86 3.34017,-0.95462 4.90609,-0.23795l1.39274,0.62988c2.07475,0.94958 4.55078,0.47647 6.12386,-1.18978c4.29283,-4.515 7.49661,-10.0372 9.24528,-15.96403c0.65217,-2.20017 -0.1697,-4.56349 -2.03662,-5.89291l-1.25277,-0.89583c-1.40825,-1.01408 -2.25358,-2.65043 -2.25358,-4.38118c0,-1.73075 0.84191,-3.36369 2.24658,-4.37419l1.25977,-0.90283c1.86692,-1.32942 2.68879,-3.69274 2.03662,-5.89291c-1.74867,-5.92683 -4.95245,-11.44903 -9.24528,-15.96403c-1.57667,-1.66625 -4.05269,-2.13936 -6.12386,-1.18978l-1.38574,0.62988c-1.58383,0.71667 -3.41525,0.61846 -4.91309,-0.23796c-1.50142,-0.86717 -2.49109,-2.40923 -2.65951,-4.12923l-0.14697,-1.51872c-0.22217,-2.28258 -1.8724,-4.17621 -4.10124,-4.71012c-3.10317,-0.74892 -6.15891,-1.11979 -9.21729,-1.11979zM121.83333,39.41667c-4.32986,0 -8.25786,1.81723 -10.736,4.60514c-2.47814,2.78792 -3.59733,6.29416 -3.59733,9.72819c0,3.43403 1.11919,6.94028 3.59733,9.72819c2.47815,2.78792 6.40614,4.60514 10.736,4.60514c4.32986,0 8.25786,-1.81723 10.736,-4.60514c2.47814,-2.78792 3.59733,-6.29416 3.59733,-9.72819c0,-3.43403 -1.11919,-6.94028 -3.59733,-9.72819c-2.47815,-2.78792 -6.40614,-4.60514 -10.736,-4.60514zM64.5,50.16667c-4.57849,0 -8.96749,0.63097 -13.12256,1.67269c-2.07968,0.52206 -3.6502,2.2301 -3.99626,4.34619l-0.88884,5.43799c-0.34929,2.12861 -1.62767,3.9761 -3.49235,5.05306c-1.86473,1.07699 -4.09498,1.26 -6.11686,0.49691l-5.17204,-1.95964c-2.00501,-0.75741 -4.26837,-0.25139 -5.75993,1.28776c-6.10249,6.28958 -10.66588,14.06675 -13.12256,22.73877c-0.58354,2.06091 0.1121,4.27158 1.77067,5.62695l4.2762,3.49935c1.66313,1.36953 2.62451,3.39811 2.62451,5.54997c0,2.15512 -0.96486,4.18504 -2.63151,5.54997l-4.2762,3.49935c-1.65601,1.35706 -2.34882,3.56744 -1.76367,5.62695c2.45978,8.66893 7.01925,16.44835 13.12256,22.73877c1.49185,1.53382 3.75129,2.03683 5.75293,1.28076l5.17904,-1.95264c2.01608,-0.76168 4.24638,-0.58222 6.11686,0.49691c1.86763,1.07748 3.13871,2.92108 3.48535,5.04606l0.88884,5.43799c0.34606,2.11609 1.91658,3.82414 3.99626,4.34619c4.16053,1.04603 8.55106,1.67969 13.12956,1.67969c4.57849,0 8.96749,-0.63097 13.12256,-1.67269c2.07968,-0.52206 3.6502,-2.2301 3.99626,-4.34619l0.88884,-5.43799c0.34929,-2.12861 1.62767,-3.9761 3.49235,-5.05306c1.86473,-1.07699 4.09498,-1.26 6.11686,-0.49691l5.17204,1.95964c2.00501,0.75741 4.26836,0.25139 5.75993,-1.28776c6.10249,-6.28958 10.66588,-14.06675 13.12256,-22.73877c0.58354,-2.06091 -0.1121,-4.27158 -1.77067,-5.62695l-4.2762,-3.49935c-1.66313,-1.36953 -2.62451,-3.39811 -2.62451,-5.54997c0,-2.15512 0.96486,-4.18504 2.63151,-5.54997l4.2762,-3.49935c1.65601,-1.35706 2.34882,-3.56744 1.76367,-5.62695c-2.46021,-8.68052 -7.05018,-16.4436 -13.13656,-22.72477c-1.49156,-1.53915 -3.75492,-2.04517 -5.75993,-1.28776l-5.15804,1.94564c-2.01608,0.76168 -4.25338,0.58222 -6.12386,-0.49691c-1.86763,-1.07748 -3.13871,-2.92108 -3.48535,-5.04606l-0.90283,-5.49398c-0.345,-2.11418 -1.91231,-3.82173 -3.98926,-4.34619c-4.19337,-1.05431 -8.59063,-1.6237 -13.11556,-1.6237zM121.83333,50.16667c1.64236,0 2.19353,0.42236 2.7015,0.99382c0.50797,0.57146 0.88184,1.54438 0.88184,2.58952c0,1.04514 -0.37387,2.01806 -0.88184,2.58952c-0.50796,0.57146 -1.05914,0.99382 -2.7015,0.99382c-1.64236,0 -2.19353,-0.42236 -2.7015,-0.99382c-0.50797,-0.57146 -0.88184,-1.54438 -0.88184,-2.58952c0,-1.04514 0.37387,-2.01806 0.88184,-2.58952c0.50796,-0.57146 1.05914,-0.99382 2.7015,-0.99382zM64.5,60.91667c2.46819,0 4.79458,0.48724 7.14567,0.88884l0.25195,1.56071c0.8661,5.29696 4.07526,9.94174 8.72738,12.62565c4.65118,2.68338 10.27057,3.13593 15.29215,1.23877l1.43473,-0.5389c3.05484,3.68454 5.46337,7.83103 7.15967,12.38769l-1.18978,0.97282c-0.00233,0 -0.00467,0 -0.007,0c-4.1525,3.4009 -6.56478,8.49454 -6.56478,13.86442c0,5.36988 2.4134,10.46102 6.55778,13.86442c0.00233,0.00233 0.00466,0.00467 0.007,0.007l1.19678,0.97982c-1.69344,4.56074 -4.09769,8.70952 -7.14567,12.38769l-1.44873,-0.55289c-5.02295,-1.89574 -10.64939,-1.43974 -15.29915,1.24577c-4.64982,2.68554 -7.85133,7.3226 -8.72038,12.61865c0,0.00233 0,0.00467 0,0.007l-0.25195,1.52572c-2.36074,0.41549 -4.70277,0.91683 -7.14567,0.91683c-2.44526,0 -4.78984,-0.49938 -7.15267,-0.91683l-0.25195,-1.52572v-0.007c-0.86611,-5.29679 -4.06826,-9.94174 -8.72038,-12.62565c-4.65118,-2.68338 -10.27057,-3.13593 -15.29215,-1.23877l-1.45573,0.5459c-3.04704,-3.67886 -5.45145,-7.82434 -7.14567,-12.38769l1.19678,-0.97982c0.00233,0 0.00467,0 0.007,0c4.15269,-3.4009 6.56478,-8.49454 6.56478,-13.86442c0,-5.36988 -2.4134,-10.46102 -6.55778,-13.86442c-0.00233,-0.00233 -0.00466,-0.00467 -0.007,-0.007l-1.19678,-0.97982c1.69344,-4.56074 4.09769,-8.70952 7.14567,-12.38769l1.44873,0.55289c5.02295,1.89574 10.64939,1.43974 15.29915,-1.24577c4.64982,-2.68554 7.85133,-7.3226 8.72038,-12.61865c0,-0.00233 0,-0.00467 0,-0.007l0.25195,-1.52572c2.36057,-0.41566 4.70277,-0.91683 7.14567,-0.91683zM64.5,82.41667c-6.71875,0 -12.43841,2.71306 -16.111,6.84473c-3.67259,4.13167 -5.389,9.42958 -5.389,14.65527c0,5.22569 1.71641,10.52361 5.389,14.65527c3.67259,4.13167 9.39225,6.84473 16.111,6.84473c6.71875,0 12.43841,-2.71306 16.111,-6.84473c3.67259,-4.13167 5.389,-9.42958 5.389,-14.65527c0,-5.22569 -1.71641,-10.52361 -5.389,-14.65527c-3.67259,-4.13167 -9.39225,-6.84473 -16.111,-6.84473zM64.5,93.16667c4.03125,0 6.37409,1.31819 8.0765,3.2334c1.70241,1.91521 2.6735,4.67979 2.6735,7.5166c0,2.83681 -0.97109,5.60139 -2.6735,7.5166c-1.70241,1.91521 -4.04525,3.2334 -8.0765,3.2334c-4.03125,0 -6.37409,-1.31819 -8.0765,-3.2334c-1.70241,-1.91521 -2.6735,-4.67979 -2.6735,-7.5166c0,-2.83681 0.97109,-5.60139 2.6735,-7.5166c1.70241,-1.91521 4.04525,-3.2334 8.0765,-3.2334z"></path></g></g></svg>