<svg version="1.1" xmlns="http://www.w3.org/2000/svg" xmlns:xlink="http://www.w3.org/1999/xlink" viewBox="0 0 172 172"><g fill="none" fill-rule="nonzero" stroke="none" stroke-width="1" stroke-linecap="butt" stroke-linejoin="miter" stroke-miterlimit="10" stroke-dasharray="" stroke-dashoffset="0" font-family="none" font-weight="none" font-size="none" text-anchor="none" style="mix-blend-mode: normal"><path d="M0,172v-172h172v172z" fill="none"></path><g fill="#000000"><path d="M79.98112,14.33333c-6.34314,0.03074 -11.91169,4.22708 -13.68945,10.31608l-0.50391,2.08561l-7.16667,3.00944l-1.79167,-1.0778c-5.64574,-3.18836 -12.72879,-2.18962 -17.27279,2.43555l-8.81836,8.45443c-4.50508,4.6324 -5.35351,11.70645 -2.07161,17.27279l1.51172,1.79167l-3.02344,7.16667l-2.07161,0.50391c-6.26096,1.61597 -10.66471,7.22387 -10.75,13.68945v12.03776c0.03074,6.34314 4.22708,11.91169 10.31608,13.68945l2.08561,0.5039l3.00944,7.16667l-1.0778,1.79167c-3.18836,5.64575 -2.18962,12.72879 2.43555,17.27279l8.45443,8.81836c4.6324,4.50508 11.70645,5.35351 17.27279,2.07161l1.79167,-1.42774l7.16667,3.00944l0.50391,2.07162c1.64252,6.23321 7.24392,10.60322 13.68945,10.68001h12.03776c6.4194,-0.10795 11.98394,-4.47152 13.61946,-10.68001l0.50391,-2.07162l7.16667,-3.00944l1.79167,1.06381c5.56633,3.28189 12.64039,2.43346 17.27278,-2.07162l8.45443,-8.45442c4.50508,-4.6324 5.35351,-11.70646 2.07161,-17.27279l-1.0778,-1.79167l3.02344,-7.16667l2.07161,-0.5039c6.26096,-1.61597 10.66471,-7.22387 10.75,-13.68945v-12.03776c-0.03074,-6.34314 -4.22708,-11.91169 -10.31608,-13.68945l-2.08561,-0.50391l-3.00944,-7.16667l1.0778,-1.79167c3.33555,-5.71199 2.32919,-12.96471 -2.43555,-17.55273l-8.45442,-8.53841c-4.6324,-4.50509 -11.70646,-5.35351 -17.27279,-2.07161l-1.79167,1.42773l-7.16667,-3.00944l-0.5039,-2.07161c-1.64252,-6.23321 -7.24392,-10.60322 -13.68945,-10.68001zM79.98112,28.66667h11.75781l1.42774,5.375c0.5232,2.21338 2.06595,4.04702 4.15723,4.94108l13.89941,5.73893c2.10861,0.8682 4.50453,0.6811 6.4528,-0.50391l4.59115,-3.00944l8.52441,8.10449l-2.93945,4.94108c-1.18501,1.94827 -1.37211,4.34419 -0.50391,6.4528l5.73893,13.89941c0.8621,2.10136 2.66927,3.66965 4.8711,4.22722l5.30501,1.14778v12.03776l-5.375,1.28776c-2.20182,0.55757 -4.00899,2.12586 -4.87109,4.22722l-5.73893,13.91341c-0.86345,2.1046 -0.67645,4.49415 0.5039,6.43881l3.00944,4.59115l-8.17448,8.45442l-4.87109,-2.93945c-1.94827,-1.18501 -4.34419,-1.37211 -6.4528,-0.50391l-13.89941,5.73894c-2.11819,0.87621 -3.68943,2.71279 -4.22722,4.94108l-1.14778,5.375h-11.75781l-1.35775,-5.58496c-0.53778,-2.22828 -2.10903,-4.06487 -4.22722,-4.94108l-13.89941,-5.73893c-0.86347,-0.36821 -1.79086,-0.5632 -2.72949,-0.57389c-1.34718,0.01843 -2.66189,0.41623 -3.79329,1.14778l-4.59115,3.00944l-8.45443,-8.17448l2.93945,-4.94108c1.18501,-1.94827 1.37211,-4.34419 0.50391,-6.4528l-5.73893,-13.89941c-0.8621,-2.10135 -2.66927,-3.66965 -4.87109,-4.22722l-5.375,-1.14778v-11.75781l5.44499,-1.35775c2.20182,-0.55757 4.009,-2.12586 4.87109,-4.22722l5.73893,-13.89941c0.8682,-2.10861 0.6811,-4.50453 -0.50391,-6.4528l-3.00944,-4.59115l8.10449,-8.52441l4.94108,3.00944c1.94827,1.18501 4.34419,1.37211 6.4528,0.50391l13.89941,-5.73893c2.11819,-0.87621 3.68943,-2.7128 4.22722,-4.94108zM84.64225,53.34408c-17.86469,0.61449 -31.92088,15.46822 -31.54952,33.33962c0.37136,17.8714 15.03247,32.12839 32.90727,32.00022c18.03537,-0.03727 32.64665,-14.64855 32.68392,-32.68392c0.00117,-8.90426 -3.63105,-17.42345 -10.05674,-23.58757c-6.42569,-6.16412 -15.0884,-9.43936 -23.98493,-9.06835zM86,67.64941c10.11932,0.03715 18.31343,8.23127 18.35059,18.35059c-0.00216,10.13156 -8.21641,18.34347 -18.34797,18.34275c-10.13156,-0.00072 -18.34464,-8.2138 -18.34536,-18.34536c-0.00072,-10.13156 8.21118,-18.34581 18.34275,-18.34797z"></path></g></g></svg>