<svg width="0" height="0" class="hidden">
  <symbol version="1.1" xmlns="http://www.w3.org/2000/svg" xmlns:xlink="http://www.w3.org/1999/xlink" viewBox="0 0 172 172" id="facebook">
    <g fill="none" fill-rule="nonzero" stroke="none" stroke-width="1" stroke-linecap="butt" stroke-linejoin="miter" stroke-miterlimit="10" stroke-dasharray="" stroke-dashoffset="0" font-family="none" font-weight="none" font-size="none" text-anchor="none">
      <path d="M0,172v-172h172v172z" fill="none"></path>
      <g fill="#000">
        <path d="M68.8,154.8v-68.8h-22.93333v-22.93333h22.93333v-12.3152c0,-23.31747 11.35773,-33.55147 30.7364,-33.55147c9.28227,0 14.19,0.688 16.512,1.00333v21.93h-13.21533c-8.22733,0 -11.09973,4.34013 -11.09973,13.13507v9.79827h24.10867l-3.27373,22.93333h-20.83493v68.8z"></path>
      </g>
    </g>
  </symbol>
  <symbol version="1.1" xmlns="http://www.w3.org/2000/svg" xmlns:xlink="http://www.w3.org/1999/xlink" viewBox="0 0 172 172" id="save-in">
    <g fill="none" fill-rule="nonzero" stroke="none" stroke-width="1" stroke-linecap="butt" stroke-linejoin="miter" stroke-miterlimit="10" stroke-dasharray="" stroke-dashoffset="0" font-family="none" font-weight="none" font-size="none" text-anchor="none">
      <path d="M0,172v-172h172v172z" fill="none"></path>
      <g fill="#000">
        <path d="M22.93333,28.66667c-6.26689,0 -11.46667,5.19977 -11.46667,11.46667v28.66667h11.46667v-28.66667h74.53333v91.73333h-74.53333v-28.66667h-11.46667v28.66667c0,6.26689 5.19977,11.46667 11.46667,11.46667h5.73333c0,3.1648 2.56853,5.73333 5.73333,5.73333h5.73333c3.1648,0 5.73333,-2.56853 5.73333,-5.73333h80.26667c0,3.1648 2.56853,5.73333 5.73333,5.73333h5.73333c3.1648,0 5.73333,-2.56853 5.73333,-5.73333h5.73333c6.26689,0 11.46667,-5.19977 11.46667,-11.46667v-91.73333c0,-6.26689 -5.19977,-11.46667 -11.46667,-11.46667zM131.86667,51.6c9.50013,0 17.2,15.39973 17.2,34.4c0,19.00027 -7.69987,34.4 -17.2,34.4c-9.50013,0 -17.2,-15.39973 -17.2,-34.4c0,-19.00027 7.69987,-34.4 17.2,-34.4zM45.86667,57.33333c-1.4663,0 -2.93278,0.55882 -4.05365,1.67969c-2.24173,2.24173 -2.24173,5.86556 0,8.10729l13.14635,13.14636h-37.75938c-3.17053,0 -5.73333,2.5628 -5.73333,5.73333c0,3.17053 2.5628,5.73333 5.73333,5.73333h37.75938l-13.14635,13.14636c-2.24173,2.24173 -2.24173,5.86556 0,8.10729c1.118,1.118 2.58591,1.67969 4.05365,1.67969c1.46773,0 2.93565,-0.56169 4.05365,-1.67969l22.92213,-22.93333c0.52747,-0.52747 0.96177,-1.15366 1.25417,-1.85886c0.57907,-1.39893 0.57907,-2.98518 0,-4.37838c-0.2924,-0.71093 -0.72097,-1.34259 -1.25417,-1.87005l-22.92213,-22.93333c-1.12087,-1.12087 -2.58735,-1.67969 -4.05365,-1.67969zM131.86667,68.8c-3.1648,0 -5.73333,7.69987 -5.73333,17.2c0,9.50013 2.56853,17.2 5.73333,17.2c3.1648,0 5.73333,-7.69987 5.73333,-17.2c0,-9.50013 -2.56853,-17.2 -5.73333,-17.2z"></path>
      </g>
    </g>
  </symbol>
  <symbol version="1.1" xmlns="http://www.w3.org/2000/svg" xmlns:xlink="http://www.w3.org/1999/xlink" viewBox="0 0 172 172" id="send">
    <g fill="none" fill-rule="nonzero" stroke="none" stroke-width="1" stroke-linecap="butt" stroke-linejoin="miter" stroke-miterlimit="10" stroke-dasharray="" stroke-dashoffset="0" font-family="none" font-weight="none" font-size="none" text-anchor="none">
      <path d="M0,172v-172h172v172z" fill="none"></path>
      <g fill="#000">
        <path d="M149.06667,17.2c-0.55025,0.00377 -1.09709,0.08674 -1.6237,0.24635c-0.15501,0.04207 -0.30818,0.09064 -0.45911,0.14557l-126.05495,40.08854v0.02239c-2.23962,0.83573 -3.72568,2.97333 -3.72891,5.3638c0.00425,2.00222 1.05271,3.85719 2.76589,4.89349l38.30807,30.39114l75.73151,-60.35677l-60.35677,75.73151l30.36875,38.28567c1.0349,1.7286 2.90117,2.78714 4.91589,2.78828c2.39047,-0.00322 4.52807,-1.48928 5.3638,-3.72891h0.02239l40.12214,-126.16692c0.041,-0.11449 0.07834,-0.23027 0.11198,-0.34714c0.15961,-0.52661 0.24258,-1.07345 0.24636,-1.6237c0,-3.16643 -2.5669,-5.73333 -5.73333,-5.73333z"></path>
      </g>
    </g>
  </symbol>
  <symbol version="1.1" xmlns="http://www.w3.org/2000/svg" xmlns:xlink="http://www.w3.org/1999/xlink" viewBox="0 0 172 172" id="easy">
    <g fill="none" fill-rule="nonzero" stroke="none" stroke-width="1" stroke-linecap="butt" stroke-linejoin="miter" stroke-miterlimit="10" stroke-dasharray="" stroke-dashoffset="0" font-family="none" font-weight="none" font-size="none" text-anchor="none">
      <path d="M0,172v-172h172v172z" fill="none"></path>
      <g fill="#000">
        <path d="M68.71042,-0.07839c-3.16203,0.04943 -5.68705,2.6496 -5.64375,5.81172v5.73333c-0.02924,2.06765 1.05709,3.99087 2.843,5.03322c1.78592,1.04236 3.99474,1.04236 5.78066,0c1.78592,-1.04236 2.87225,-2.96558 2.843,-5.03322v-5.73333c0.02122,-1.54972 -0.58581,-3.04203 -1.68279,-4.1369c-1.09698,-1.09487 -2.59045,-1.69903 -4.14013,-1.67482zM40.07734,11.41068c-2.33303,0.00061 -4.43307,1.41473 -5.31096,3.57628c-0.8779,2.16155 -0.3586,4.6395 1.31331,6.26669l5.73333,5.73333c1.43802,1.49775 3.57339,2.10107 5.58257,1.57728c2.00918,-0.52378 3.57822,-2.09283 4.10201,-4.10201c0.52378,-2.00918 -0.07954,-4.14455 -1.57728,-5.58257l-5.73333,-5.73333c-1.07942,-1.10959 -2.56163,-1.73559 -4.10963,-1.73568zM97.35469,11.41068c-1.48951,0.04438 -2.90324,0.6669 -3.94167,1.73568l-5.73333,5.73333c-1.49776,1.43802 -2.1011,3.57339 -1.57732,5.58258c0.52378,2.00919 2.09283,3.57824 4.10202,4.10202c2.00919,0.52378 4.14456,-0.07955 5.58258,-1.57731l5.73333,-5.73333c1.69569,-1.64828 2.20555,-4.16851 1.28389,-6.3463c-0.92166,-2.17779 -3.08576,-3.56638 -5.44951,-3.49667zM133.09844,17.32318c-2.72978,-0.20783 -5.52478,0.73494 -7.61458,2.82188l-62.39479,62.39479c0,0 -10.06065,-18.93487 -15.10599,-23.98593c-8.80067,-8.79494 -22.27382,-9.55066 -26.76302,-5.06146l-2.38516,2.37396c-2.0984,2.0984 -2.0984,5.49379 0,7.59219l12.11615,12.11615l6.60677,27.77083c1.77733,7.45907 5.58382,14.2846 11.00755,19.70833l24.33307,24.32187c9.78107,9.78107 25.62674,9.78107 35.40781,0l6.96511,-6.96511l30.58151,-30.58151c3.4228,-3.4228 4.2544,-8.95027 1.42214,-12.87761c-3.612,-5.01093 -10.64097,-5.42257 -14.81484,-1.24297l3.07942,-3.07942c3.42853,-3.42853 4.2544,-8.93908 1.42214,-12.86641c-3.612,-5.01093 -10.63524,-5.42803 -14.81484,-1.25417l3.06823,-3.06823c3.42853,-3.42853 4.2544,-8.95027 1.42214,-12.87761c-3.612,-5.01093 -10.63525,-5.41683 -14.81485,-1.24297l27.05417,-27.05416c3.42853,-3.42853 4.2544,-8.93907 1.42214,-12.86641c-1.806,-2.50547 -4.47047,-3.86821 -7.20026,-4.07604z"></path>
      </g>
    </g>
  </symbol>
  <symbol version="1.1" xmlns="http://www.w3.org/2000/svg" xmlns:xlink="http://www.w3.org/1999/xlink" viewBox="0 0 172 172" id="moneybox">
    <g fill="none" fill-rule="nonzero" stroke="none" stroke-width="1" stroke-linecap="butt" stroke-linejoin="miter" stroke-miterlimit="10" stroke-dasharray="" stroke-dashoffset="0" font-family="none" font-weight="none" font-size="none" text-anchor="none">
      <path d="M0,172v-172h172v172z" fill="none"></path>
      <g fill="#000">
        <path d="M71.66667,11.46667c-11.08253,0 -20.06667,8.98413 -20.06667,20.06667c0,5.6244 2.33141,10.69267 6.05808,14.33333h28.02838c3.72093,-3.64067 6.04688,-8.70893 6.04688,-14.33333c0,-11.08253 -8.98413,-20.06667 -20.06667,-20.06667zM143.33333,45.86667l-26.56146,8.85755c-5.6936,-2.72278 -11.91296,-4.86904 -18.54376,-6.34922c-1.29573,2.0296 -2.75809,3.95708 -4.52396,5.68854l-3.34817,3.26979h-37.37865l-3.34818,-3.26979c-1.204,-1.18107 -2.20527,-2.48862 -3.19141,-3.80729c-14.13555,5.19912 -24.27912,15.14022 -27.79323,30.20078c-0.47146,-0.12463 -0.95688,-0.1886 -1.44453,-0.19036c-3.16643,0 -5.73333,2.5669 -5.73333,5.73333c0,3.16643 2.5669,5.73333 5.73333,5.73333c0.01866,0.00009 0.03733,0.00009 0.05599,0c-0.00339,0.2642 -0.05599,0.49482 -0.05599,0.76146c0,8.58314 2.20138,17.13803 6.39401,24.91537l5.27422,31.62292c0.5504,3.33107 3.42047,5.76692 6.78594,5.76692h15.88984c3.3712,0 6.24673,-2.43586 6.79713,-5.76692l0.59349,-3.53854c7.22086,2.25232 15.26817,3.57214 24.1987,3.57214c6.5022,0 12.71654,-0.58854 18.58854,-1.65729l3.12421,4.79271c1.06067,1.62253 2.86604,2.59792 4.80391,2.59792h16.48333c3.61773,0 6.33229,-3.30419 5.62136,-6.85312l-2.25078,-11.20912c6.61897,-4.42661 11.79415,-9.94995 15.16198,-16.38255h4.93828c3.1648,0 5.92236,-2.1509 6.69636,-5.21823l4.03125,-16.14739c0.87147,-3.4916 -1.08449,-7.07288 -4.50156,-8.20808l-8.82396,-2.94505c-2.09041,-7.12148 -5.74154,-13.38073 -10.58203,-18.76771c3.6562,-5.63017 6.90911,-13.27357 6.90911,-23.20208zM123.26667,80.26667c4.7472,0 8.6,3.8528 8.6,8.6c0,4.7472 -3.8528,8.6 -8.6,8.6c-4.7472,0 -8.6,-3.8528 -8.6,-8.6c0,-4.7472 3.8528,-8.6 8.6,-8.6z"></path>
      </g>
    </g>
  </symbol>
  <symbol version="1.1" xmlns="http://www.w3.org/2000/svg" xmlns:xlink="http://www.w3.org/1999/xlink" viewBox="0 0 172 172" id="whatsapp">
    <g fill="none" fill-rule="nonzero" stroke="none" stroke-width="1" stroke-linecap="butt" stroke-linejoin="miter" stroke-miterlimit="10" stroke-dasharray="" stroke-dashoffset="0" font-family="none" font-weight="none" font-size="none" text-anchor="none">
      <path d="M0,172v-172h172v172z" fill="none"></path>
      <g fill="#000">
        <path d="M86,17.2c-37.9948,0 -68.8,30.8052 -68.8,68.8c0,12.90693 3.62542,24.94039 9.80937,35.26224l-9.19349,33.53776l34.25443,-8.99192c10.01798,5.69561 21.5829,8.99192 33.92969,8.99192c37.9948,0 68.8,-30.8052 68.8,-68.8c0,-37.9948 -30.8052,-68.8 -68.8,-68.8zM62.45078,53.90677c1.118,0 2.26672,-0.00681 3.2586,0.04479c1.22693,0.02867 2.56235,0.11852 3.84088,2.94505c1.51933,3.35973 4.82756,11.78818 5.25183,12.64245c0.42427,0.85427 0.72491,1.86064 0.13437,2.97865c-0.56187,1.14666 -0.85408,1.84066 -1.67968,2.85546c-0.85427,0.98613 -1.79033,2.21092 -2.56433,2.95625c-0.85427,0.85427 -1.73639,1.79095 -0.75026,3.49375c0.98613,1.7028 4.41091,7.28501 9.47343,11.79141c6.50733,5.8136 11.99772,7.60016 13.70626,8.45442c1.70853,0.85427 2.69798,0.72115 3.68411,-0.42552c1.0148,-1.118 4.26192,-4.95423 5.40859,-6.66276c1.118,-1.70853 2.25929,-1.41291 3.80729,-0.85104c1.57093,0.56187 9.9485,4.6887 11.65703,5.54297c1.70853,0.85427 2.82859,1.2771 3.25859,1.97083c0.44147,0.71667 0.44191,4.12836 -0.97422,8.10729c-1.41613,3.9732 -8.37013,7.81543 -11.48906,8.08489c-3.1476,0.2924 -6.08513,1.41479 -20.4586,-4.24401c-17.33759,-6.8284 -28.27151,-24.58614 -29.12578,-25.73281c-0.85427,-1.118 -6.94271,-9.23246 -6.94271,-17.60313c0,-8.39933 4.40383,-12.51282 5.94609,-14.22135c1.57093,-1.70853 3.41089,-2.1276 4.55755,-2.1276z"></path>
      </g>
    </g>
  </symbol>
</svg>