<svg width="0" height="0" class="hidden">
  <symbol version="1.1" xmlns="http://www.w3.org/2000/svg" xmlns:xlink="http://www.w3.org/1999/xlink" viewBox="0 0 172 172" id="easy">
    <g fill-rule="nonzero" stroke="none" stroke-width="1" stroke-linecap="butt" stroke-linejoin="miter" stroke-miterlimit="10" stroke-dasharray="" stroke-dashoffset="0" font-family="none" font-weight="none" font-size="none" text-anchor="none">
      <path d="M0,172v-172h172v172z" fill="none"></path>
      <g>
        <path d="M68.71042,-0.07839c-3.16203,0.04943 -5.68705,2.6496 -5.64375,5.81172v5.73333c-0.02924,2.06765 1.05709,3.99087 2.843,5.03322c1.78592,1.04236 3.99474,1.04236 5.78066,0c1.78592,-1.04236 2.87225,-2.96558 2.843,-5.03322v-5.73333c0.02122,-1.54972 -0.58581,-3.04203 -1.68279,-4.1369c-1.09698,-1.09487 -2.59045,-1.69903 -4.14013,-1.67482zM40.07734,11.41068c-2.33303,0.00061 -4.43307,1.41473 -5.31096,3.57628c-0.8779,2.16155 -0.3586,4.6395 1.31331,6.26669l5.73333,5.73333c1.43802,1.49775 3.57339,2.10107 5.58257,1.57728c2.00918,-0.52378 3.57822,-2.09283 4.10201,-4.10201c0.52378,-2.00918 -0.07954,-4.14455 -1.57728,-5.58257l-5.73333,-5.73333c-1.07942,-1.10959 -2.56163,-1.73559 -4.10963,-1.73568zM97.35469,11.41068c-1.48951,0.04438 -2.90324,0.6669 -3.94167,1.73568l-5.73333,5.73333c-1.49776,1.43802 -2.1011,3.57339 -1.57732,5.58258c0.52378,2.00919 2.09283,3.57824 4.10202,4.10202c2.00919,0.52378 4.14456,-0.07955 5.58258,-1.57731l5.73333,-5.73333c1.69569,-1.64828 2.20555,-4.16851 1.28389,-6.3463c-0.92166,-2.17779 -3.08576,-3.56638 -5.44951,-3.49667zM133.09844,17.32318c-2.72978,-0.20783 -5.52478,0.73494 -7.61458,2.82188l-62.39479,62.39479c0,0 -10.06065,-18.93487 -15.10599,-23.98593c-8.80067,-8.79494 -22.27382,-9.55066 -26.76302,-5.06146l-2.38516,2.37396c-2.0984,2.0984 -2.0984,5.49379 0,7.59219l12.11615,12.11615l6.60677,27.77083c1.77733,7.45907 5.58382,14.2846 11.00755,19.70833l24.33307,24.32187c9.78107,9.78107 25.62674,9.78107 35.40781,0l6.96511,-6.96511l30.58151,-30.58151c3.4228,-3.4228 4.2544,-8.95027 1.42214,-12.87761c-3.612,-5.01093 -10.64097,-5.42257 -14.81484,-1.24297l3.07942,-3.07942c3.42853,-3.42853 4.2544,-8.93908 1.42214,-12.86641c-3.612,-5.01093 -10.63524,-5.42803 -14.81484,-1.25417l3.06823,-3.06823c3.42853,-3.42853 4.2544,-8.95027 1.42214,-12.87761c-3.612,-5.01093 -10.63525,-5.41683 -14.81485,-1.24297l27.05417,-27.05416c3.42853,-3.42853 4.2544,-8.93907 1.42214,-12.86641c-1.806,-2.50547 -4.47047,-3.86821 -7.20026,-4.07604z"></path>
      </g>
    </g>
  </symbol>
  <symbol version="1.1" xmlns="http://www.w3.org/2000/svg" xmlns:xlink="http://www.w3.org/1999/xlink" viewBox="0 0 172 172" id="moneybox">
    <g fill-rule="nonzero" stroke="none" stroke-width="1" stroke-linecap="butt" stroke-linejoin="miter" stroke-miterlimit="10" stroke-dasharray="" stroke-dashoffset="0" font-family="none" font-weight="none" font-size="none" text-anchor="none">
      <path d="M0,172v-172h172v172z" fill="none"></path>
      <g>
        <path d="M71.66667,11.46667c-11.08253,0 -20.06667,8.98413 -20.06667,20.06667c0,5.6244 2.33141,10.69267 6.05808,14.33333h28.02838c3.72093,-3.64067 6.04688,-8.70893 6.04688,-14.33333c0,-11.08253 -8.98413,-20.06667 -20.06667,-20.06667zM143.33333,45.86667l-26.56146,8.85755c-5.6936,-2.72278 -11.91296,-4.86904 -18.54376,-6.34922c-1.29573,2.0296 -2.75809,3.95708 -4.52396,5.68854l-3.34817,3.26979h-37.37865l-3.34818,-3.26979c-1.204,-1.18107 -2.20527,-2.48862 -3.19141,-3.80729c-14.13555,5.19912 -24.27912,15.14022 -27.79323,30.20078c-0.47146,-0.12463 -0.95688,-0.1886 -1.44453,-0.19036c-3.16643,0 -5.73333,2.5669 -5.73333,5.73333c0,3.16643 2.5669,5.73333 5.73333,5.73333c0.01866,0.00009 0.03733,0.00009 0.05599,0c-0.00339,0.2642 -0.05599,0.49482 -0.05599,0.76146c0,8.58314 2.20138,17.13803 6.39401,24.91537l5.27422,31.62292c0.5504,3.33107 3.42047,5.76692 6.78594,5.76692h15.88984c3.3712,0 6.24673,-2.43586 6.79713,-5.76692l0.59349,-3.53854c7.22086,2.25232 15.26817,3.57214 24.1987,3.57214c6.5022,0 12.71654,-0.58854 18.58854,-1.65729l3.12421,4.79271c1.06067,1.62253 2.86604,2.59792 4.80391,2.59792h16.48333c3.61773,0 6.33229,-3.30419 5.62136,-6.85312l-2.25078,-11.20912c6.61897,-4.42661 11.79415,-9.94995 15.16198,-16.38255h4.93828c3.1648,0 5.92236,-2.1509 6.69636,-5.21823l4.03125,-16.14739c0.87147,-3.4916 -1.08449,-7.07288 -4.50156,-8.20808l-8.82396,-2.94505c-2.09041,-7.12148 -5.74154,-13.38073 -10.58203,-18.76771c3.6562,-5.63017 6.90911,-13.27357 6.90911,-23.20208zM123.26667,80.26667c4.7472,0 8.6,3.8528 8.6,8.6c0,4.7472 -3.8528,8.6 -8.6,8.6c-4.7472,0 -8.6,-3.8528 -8.6,-8.6c0,-4.7472 3.8528,-8.6 8.6,-8.6z"></path>
      </g>
    </g>
  </symbol>
  <symbol version="1.1" xmlns="http://www.w3.org/2000/svg" xmlns:xlink="http://www.w3.org/1999/xlink" viewBox="0 0 172 172" id="save-in">
    <g fill-rule="nonzero" stroke="none" stroke-width="1" stroke-linecap="butt" stroke-linejoin="miter" stroke-miterlimit="10" stroke-dasharray="" stroke-dashoffset="0" font-family="none" font-weight="none" font-size="none" text-anchor="none">
      <path d="M0,172v-172h172v172z" fill="none"></path>
      <g>
        <path d="M22.93333,28.66667c-6.26689,0 -11.46667,5.19977 -11.46667,11.46667v28.66667h11.46667v-28.66667h74.53333v91.73333h-74.53333v-28.66667h-11.46667v28.66667c0,6.26689 5.19977,11.46667 11.46667,11.46667h5.73333c0,3.1648 2.56853,5.73333 5.73333,5.73333h5.73333c3.1648,0 5.73333,-2.56853 5.73333,-5.73333h80.26667c0,3.1648 2.56853,5.73333 5.73333,5.73333h5.73333c3.1648,0 5.73333,-2.56853 5.73333,-5.73333h5.73333c6.26689,0 11.46667,-5.19977 11.46667,-11.46667v-91.73333c0,-6.26689 -5.19977,-11.46667 -11.46667,-11.46667zM131.86667,51.6c9.50013,0 17.2,15.39973 17.2,34.4c0,19.00027 -7.69987,34.4 -17.2,34.4c-9.50013,0 -17.2,-15.39973 -17.2,-34.4c0,-19.00027 7.69987,-34.4 17.2,-34.4zM45.86667,57.33333c-1.4663,0 -2.93278,0.55882 -4.05365,1.67969c-2.24173,2.24173 -2.24173,5.86556 0,8.10729l13.14635,13.14636h-37.75938c-3.17053,0 -5.73333,2.5628 -5.73333,5.73333c0,3.17053 2.5628,5.73333 5.73333,5.73333h37.75938l-13.14635,13.14636c-2.24173,2.24173 -2.24173,5.86556 0,8.10729c1.118,1.118 2.58591,1.67969 4.05365,1.67969c1.46773,0 2.93565,-0.56169 4.05365,-1.67969l22.92213,-22.93333c0.52747,-0.52747 0.96177,-1.15366 1.25417,-1.85886c0.57907,-1.39893 0.57907,-2.98518 0,-4.37838c-0.2924,-0.71093 -0.72097,-1.34259 -1.25417,-1.87005l-22.92213,-22.93333c-1.12087,-1.12087 -2.58735,-1.67969 -4.05365,-1.67969zM131.86667,68.8c-3.1648,0 -5.73333,7.69987 -5.73333,17.2c0,9.50013 2.56853,17.2 5.73333,17.2c3.1648,0 5.73333,-7.69987 5.73333,-17.2c0,-9.50013 -2.56853,-17.2 -5.73333,-17.2z"></path>
      </g>
    </g>
  </symbol>

    <symbol version="1.1" xmlns="http://www.w3.org/2000/svg" xmlns:xlink="http://www.w3.org/1999/xlink" viewBox="0 0 172 172" id="transparentok">
    <g fill-rule="nonzero" stroke="none" stroke-width="1" stroke-linecap="butt" stroke-linejoin="miter" stroke-miterlimit="10" stroke-dasharray="" stroke-dashoffset="0" font-family="none" font-weight="none" font-size="none" text-anchor="none">
      <path d="M0,172v-172h172v172z" fill="none"></path>
      <g>
        <path d="M22.93333,22.93333c-6.33533,0 -11.46667,5.13133 -11.46667,11.46667v22.93333v91.73333h49.9987c-0.68227,-1.08933 -1.20812,-1.99206 -1.50052,-2.51953c-1.74867,-2.8036 -2.63151,-5.811 -2.63151,-8.94714h-34.4v-80.26667h126.13333v41.83542c4.21973,2.24173 8.03813,4.81367 11.46667,7.50261v-60.80469v-11.46667c0,-6.33533 -5.13133,-11.46667 -11.46667,-11.46667zM45.86667,74.53333c-3.16643,0 -5.73333,2.5669 -5.73333,5.73333c0,3.16643 2.5669,5.73333 5.73333,5.73333c3.16643,0 5.73333,-2.5669 5.73333,-5.73333c0,-3.16643 -2.5669,-5.73333 -5.73333,-5.73333zM68.8,74.53333c-3.1648,0 -5.73333,2.56853 -5.73333,5.73333c0,3.1648 2.56853,5.73333 5.73333,5.73333h51.6c3.1648,0 5.73333,-2.56853 5.73333,-5.73333c0,-3.1648 -2.56853,-5.73333 -5.73333,-5.73333zM45.86667,97.46667c-3.16643,0 -5.73333,2.5669 -5.73333,5.73333c0,3.16643 2.5669,5.73333 5.73333,5.73333c3.16643,0 5.73333,-2.5669 5.73333,-5.73333c0,-3.16643 -2.5669,-5.73333 -5.73333,-5.73333zM68.8,97.46667c-3.1648,0 -5.73333,2.56853 -5.73333,5.73333c0,3.1648 2.56853,5.73333 5.73333,5.73333h8.65599c4.94213,-4.20827 10.89243,-8.3076 17.7151,-11.46667zM120.4,103.2c-30.96,0 -50.55859,31.28698 -50.55859,31.28698c-0.602,0.90587 -1.04141,1.93769 -1.04141,3.11302c0,1.18107 0.44487,2.21835 1.05261,3.12422c0,0 16.14739,31.27578 50.54739,31.27578c34.4,0 50.5362,-31.26458 50.5362,-31.26458c0.61347,-0.9116 1.0638,-1.94862 1.0638,-3.13542c0,-1.18107 -0.43914,-2.21262 -1.05261,-3.12422c0,0 -19.58739,-31.27578 -50.54739,-31.27578zM120.4,114.66667c12.66493,0 22.93333,10.2684 22.93333,22.93333c0,12.66493 -10.2684,22.93333 -22.93333,22.93333c-12.66493,0 -22.93333,-10.2684 -22.93333,-22.93333c0,-12.66493 10.2684,-22.93333 22.93333,-22.93333zM120.4,126.13333c-6.33533,0 -11.46667,5.13133 -11.46667,11.46667c0,6.33533 5.13133,11.46667 11.46667,11.46667c6.33533,0 11.46667,-5.13133 11.46667,-11.46667c0,-6.33533 -5.13133,-11.46667 -11.46667,-11.46667z"></path>
      </g>
    </g>
  </symbol>

  <symbol version="1.1" xmlns="http://www.w3.org/2000/svg" xmlns:xlink="http://www.w3.org/1999/xlink" viewBox="0 0 172 172" id="facebook">
    <g fill-rule="nonzero" stroke="none" stroke-width="1" stroke-linecap="butt" stroke-linejoin="miter" stroke-miterlimit="10" stroke-dasharray="" stroke-dashoffset="0" font-family="none" font-weight="none" font-size="none" text-anchor="none">
      <path d="M0,172v-172h172v172z" fill="none"></path>
      <g>
        <path d="M68.8,154.8v-68.8h-22.93333v-22.93333h22.93333v-12.3152c0,-23.31747 11.35773,-33.55147 30.7364,-33.55147c9.28227,0 14.19,0.688 16.512,1.00333v21.93h-13.21533c-8.22733,0 -11.09973,4.34013 -11.09973,13.13507v9.79827h24.10867l-3.27373,22.93333h-20.83493v68.8z"></path>
      </g>
    </g>
  </symbol>
  <symbol version="1.1" xmlns="http://www.w3.org/2000/svg" xmlns:xlink="http://www.w3.org/1999/xlink" viewBox="0 0 172 172" id="send">
    <g fill-rule="nonzero" stroke="none" stroke-width="1" stroke-linecap="butt" stroke-linejoin="miter" stroke-miterlimit="10" stroke-dasharray="" stroke-dashoffset="0" font-family="none" font-weight="none" font-size="none" text-anchor="none">
      <path d="M0,172v-172h172v172z" fill="none"></path>
      <g>
        <path d="M149.06667,17.2c-0.55025,0.00377 -1.09709,0.08674 -1.6237,0.24635c-0.15501,0.04207 -0.30818,0.09064 -0.45911,0.14557l-126.05495,40.08854v0.02239c-2.23962,0.83573 -3.72568,2.97333 -3.72891,5.3638c0.00425,2.00222 1.05271,3.85719 2.76589,4.89349l38.30807,30.39114l75.73151,-60.35677l-60.35677,75.73151l30.36875,38.28567c1.0349,1.7286 2.90117,2.78714 4.91589,2.78828c2.39047,-0.00322 4.52807,-1.48928 5.3638,-3.72891h0.02239l40.12214,-126.16692c0.041,-0.11449 0.07834,-0.23027 0.11198,-0.34714c0.15961,-0.52661 0.24258,-1.07345 0.24636,-1.6237c0,-3.16643 -2.5669,-5.73333 -5.73333,-5.73333z"></path>
      </g>
    </g>
  </symbol>



  <symbol version="1.1" xmlns="http://www.w3.org/2000/svg" xmlns:xlink="http://www.w3.org/1999/xlink" viewBox="0 0 172 172" id="twitter">
    <g fill-rule="nonzero" stroke="none" stroke-width="1" stroke-linecap="butt" stroke-linejoin="miter" stroke-miterlimit="10" stroke-dasharray="" stroke-dashoffset="0" font-family="none" font-weight="none" font-size="none" text-anchor="none">
      <path d="M0,172v-172h172v172z" fill="none"></path>
      <g>
        <path d="M160.53333,39.77213c-5.4868,2.43667 -11.38067,4.0764 -17.56693,4.816c6.31813,-3.784 11.1628,-9.77533 13.44467,-16.91907c-5.90533,3.50307 -12.4528,6.04867 -19.42453,7.42467c-5.57853,-5.94547 -13.52493,-9.66067 -22.31987,-9.66067c-16.8904,0 -30.5816,13.69693 -30.5816,30.5816c0,2.39653 0.2752,4.73573 0.7912,6.966c-25.41587,-1.2728 -47.94787,-13.4504 -63.038,-31.9576c-2.62587,4.51787 -4.13373,9.7696 -4.13373,15.38253c0,10.60667 5.39507,19.9692 13.59947,25.45027c-5.01093,-0.16053 -9.72947,-1.53653 -13.85173,-3.82413c0,0.13187 0,0.25227 0,0.38413c0,14.82067 10.53787,27.18173 24.53293,29.98533c-2.5628,0.69947 -5.26893,1.07213 -8.06107,1.07213c-1.96653,0 -3.8872,-0.19493 -5.75053,-0.54467c3.89293,12.14893 15.1876,20.99547 28.5692,21.242c-10.46333,8.2044 -23.65,13.09493 -37.98333,13.09493c-2.46533,0 -4.902,-0.14333 -7.29853,-0.43c13.5364,8.67453 29.60693,13.73707 46.88147,13.73707c56.25547,0 87.00907,-46.60053 87.00907,-87.0148c0,-1.3244 -0.02867,-2.64307 -0.086,-3.956c5.97987,-4.3172 11.16853,-9.7008 15.26787,-15.82973z"></path>
      </g>
    </g>
  </symbol>
  <symbol version="1.1" xmlns="http://www.w3.org/2000/svg" xmlns:xlink="http://www.w3.org/1999/xlink" viewBox="0 0 172 172" id="whatsapp">
    <g fill-rule="nonzero" stroke="none" stroke-width="1" stroke-linecap="butt" stroke-linejoin="miter" stroke-miterlimit="10" stroke-dasharray="" stroke-dashoffset="0" font-family="none" font-weight="none" font-size="none" text-anchor="none">
      <path d="M0,172v-172h172v172z" fill="none"></path>
      <g>
        <path d="M86,17.2c-37.9948,0 -68.8,30.8052 -68.8,68.8c0,12.90693 3.62542,24.94039 9.80937,35.26224l-9.19349,33.53776l34.25443,-8.99192c10.01798,5.69561 21.5829,8.99192 33.92969,8.99192c37.9948,0 68.8,-30.8052 68.8,-68.8c0,-37.9948 -30.8052,-68.8 -68.8,-68.8zM62.45078,53.90677c1.118,0 2.26672,-0.00681 3.2586,0.04479c1.22693,0.02867 2.56235,0.11852 3.84088,2.94505c1.51933,3.35973 4.82756,11.78818 5.25183,12.64245c0.42427,0.85427 0.72491,1.86064 0.13437,2.97865c-0.56187,1.14666 -0.85408,1.84066 -1.67968,2.85546c-0.85427,0.98613 -1.79033,2.21092 -2.56433,2.95625c-0.85427,0.85427 -1.73639,1.79095 -0.75026,3.49375c0.98613,1.7028 4.41091,7.28501 9.47343,11.79141c6.50733,5.8136 11.99772,7.60016 13.70626,8.45442c1.70853,0.85427 2.69798,0.72115 3.68411,-0.42552c1.0148,-1.118 4.26192,-4.95423 5.40859,-6.66276c1.118,-1.70853 2.25929,-1.41291 3.80729,-0.85104c1.57093,0.56187 9.9485,4.6887 11.65703,5.54297c1.70853,0.85427 2.82859,1.2771 3.25859,1.97083c0.44147,0.71667 0.44191,4.12836 -0.97422,8.10729c-1.41613,3.9732 -8.37013,7.81543 -11.48906,8.08489c-3.1476,0.2924 -6.08513,1.41479 -20.4586,-4.24401c-17.33759,-6.8284 -28.27151,-24.58614 -29.12578,-25.73281c-0.85427,-1.118 -6.94271,-9.23246 -6.94271,-17.60313c0,-8.39933 4.40383,-12.51282 5.94609,-14.22135c1.57093,-1.70853 3.41089,-2.1276 4.55755,-2.1276z"></path>
      </g>
    </g>
  </symbol>
   <symbol version="1.1" xmlns="http://www.w3.org/2000/svg" xmlns:xlink="http://www.w3.org/1999/xlink" viewBox="0 0 172 172" id="telegram">
    <g fill-rule="nonzero" stroke="none" stroke-width="1" stroke-linecap="butt" stroke-linejoin="miter" stroke-miterlimit="10" stroke-dasharray="" stroke-dashoffset="0" font-family="none" font-weight="none" font-size="none" text-anchor="none">
      <path d="M0,172v-172h172v172z" fill="none"></path>
      <g>
        <path d="M144.21797,22.84375c-1.86365,0.08222 -3.60003,0.62506 -5.12864,1.24297c-1.43191,0.57599 -6.90293,2.9225 -15.52032,6.61797c-8.62488,3.69868 -20.0452,8.60178 -32.2276,13.84062c-24.36481,10.47769 -51.75727,22.27192 -65.78776,28.30833c-0.52759,0.2269 -2.3685,0.815 -4.3224,2.34036c-1.9539,1.52536 -4.03125,4.68615 -4.03125,8.20808c0,2.83995 1.35345,5.66135 3.05703,7.34583c1.70358,1.68449 3.50619,2.5166 5.05026,3.14661c5.60242,2.28595 22.97797,9.39641 26.25911,10.7388c1.15472,3.53737 7.44387,22.77582 8.90234,27.49089c0.96144,3.1115 1.87665,5.06022 3.06823,6.60677c0.59579,0.77327 1.28835,1.45096 2.12761,1.98203c0.33546,0.21225 0.70327,0.37575 1.075,0.5263l0.02239,0.0112c0.08566,0.0344 0.1595,0.09279 0.24636,0.12317c0.16387,0.05733 0.27349,0.06421 0.49271,0.11198c0.87332,0.28204 1.75504,0.45911 2.54192,0.45911c3.35493,0.00001 5.40859,-1.84765 5.40859,-1.84765l0.12318,-0.08958l17.25599,-14.92683l20.92891,19.79792c0.29467,0.41669 3.04294,4.18802 9.10391,4.18802c3.5988,0 6.45362,-1.80585 8.28646,-3.72891c1.83284,-1.92306 2.97473,-3.9434 3.46016,-6.48359v-0.0112c0.45402,-2.40036 19.74192,-101.41953 19.74192,-101.41953l-0.03359,0.13437c0.56462,-2.57721 0.71258,-4.97734 0.08958,-7.34583c-0.62303,-2.36849 -2.26463,-4.63621 -4.3,-5.85651c-2.03517,-1.22003 -4.02645,-1.59394 -5.89011,-1.51172zM143.14297,34.82552c-0.02752,0.16733 0.02061,0.08319 -0.02239,0.27995l-0.0112,0.06719l-0.0112,0.06719c0,0 -19.04899,97.75268 -19.75312,101.47552c0.05152,-0.28115 -0.18403,0.27786 -0.42552,0.61589c-0.34143,-0.23532 -1.04141,-0.5375 -1.04141,-0.5375l-0.11198,-0.12317l-28.58828,-27.04297l-20.21224,17.46875l6.01329,-24.07552c0,0 37.58871,-38.91008 39.85338,-41.17474c1.82321,-1.81173 2.20599,-2.44329 2.20599,-3.06823c0,-0.83707 -0.43627,-1.44453 -1.41094,-1.44453c-0.8772,0 -2.05683,0.85283 -2.6875,1.25417c-8.21645,5.23766 -44.28806,26.26091 -60.45755,35.66536c-2.5696,-1.0516 -20.42155,-8.35909 -26.47187,-10.82839c0.04581,-0.02007 0.03073,-0.01295 0.07839,-0.03359c14.03417,-6.03799 41.41521,-17.83213 65.77656,-28.30833c12.18068,-5.2381 23.60967,-10.14492 32.22761,-13.84063c8.48524,-3.6388 14.38108,-6.14309 15.05,-6.41641z"></path>
      </g>
    </g>
  </symbol>

   <symbol version="1.1" xmlns="http://www.w3.org/2000/svg" xmlns:xlink="http://www.w3.org/1999/xlink" viewBox="0 0 172 172" id="hamburger-menu">
    <g fill-rule="nonzero" stroke="none" stroke-width="1" stroke-linecap="butt" stroke-linejoin="miter" stroke-miterlimit="10" stroke-dasharray="" stroke-dashoffset="0" font-family="none" font-weight="none" font-size="none" text-anchor="none">
      <path d="M0,172v-172h172v172z" fill="none"></path>
      <g>
        <path d="M17.2,40.13333c-2.06765,-0.02924 -3.99087,1.05709 -5.03322,2.843c-1.04236,1.78592 -1.04236,3.99474 0,5.78066c1.04236,1.78592 2.96558,2.87225 5.03322,2.843h137.6c2.06765,0.02924 3.99087,-1.05709 5.03322,-2.843c1.04236,-1.78592 1.04236,-3.99474 0,-5.78066c-1.04236,-1.78592 -2.96558,-2.87225 -5.03322,-2.843zM17.2,80.26667c-2.06765,-0.02924 -3.99087,1.05709 -5.03322,2.843c-1.04236,1.78592 -1.04236,3.99474 0,5.78066c1.04236,1.78592 2.96558,2.87225 5.03322,2.843h137.6c2.06765,0.02924 3.99087,-1.05709 5.03322,-2.843c1.04236,-1.78592 1.04236,-3.99474 0,-5.78066c-1.04236,-1.78592 -2.96558,-2.87225 -5.03322,-2.843zM17.2,120.4c-2.06765,-0.02924 -3.99087,1.05709 -5.03322,2.843c-1.04236,1.78592 -1.04236,3.99474 0,5.78066c1.04236,1.78592 2.96558,2.87225 5.03322,2.843h137.6c2.06765,0.02924 3.99087,-1.05709 5.03322,-2.843c1.04236,-1.78592 1.04236,-3.99474 0,-5.78066c-1.04236,-1.78592 -2.96558,-2.87225 -5.03322,-2.843z"></path>
      </g>
    </g>
  </symbol>
  <symbol version="1.1" xmlns="http://www.w3.org/2000/svg" xmlns:xlink="http://www.w3.org/1999/xlink" viewBox="0 0 172 172" id="google-filled">
    <g  fill-rule="nonzero" stroke="none" stroke-width="1" stroke-linecap="butt" stroke-linejoin="miter" stroke-miterlimit="10" stroke-dasharray="" stroke-dashoffset="0" font-family="none" font-weight="none" font-size="none" text-anchor="none">
      <path d="M0,172v-172h172v172z" fill="none"></path>
      <g>
        <path d="M86.02239,17.2c-38.00627,0 -68.82239,30.8052 -68.82239,68.8c0,37.9948 30.81613,68.8 68.82239,68.8c57.39067,0 70.32032,-53.27987 64.93672,-80.26667h-7.62578h-13.00078h-44.33255v22.93333h44.36614c-5.10025,19.76997 -23.004,34.4 -44.36614,34.4c-25.32987,0 -45.86667,-20.5368 -45.86667,-45.86667c0,-25.32987 20.5368,-45.86667 45.86667,-45.86667c11.51827,0 22.01108,4.27563 30.06641,11.2875l16.29297,-16.28177c-12.23494,-11.1456 -28.48912,-17.93906 -46.33698,-17.93906z"></path>
      </g>
    </g>
  </symbol>
  <symbol version="1.1" xmlns="http://www.w3.org/2000/svg" xmlns:xlink="http://www.w3.org/1999/xlink" viewBox="0 0 172 172" id="facebook-btn">
    <g  fill-rule="nonzero" stroke="none" stroke-width="1" stroke-linecap="butt" stroke-linejoin="miter" stroke-miterlimit="10" stroke-dasharray="" stroke-dashoffset="0" font-family="none" font-weight="none" font-size="none" text-anchor="none">
      <path d="M0,172v-172h172v172z" fill="none"></path>
      <g>
        <path d="M86,14.33333c-39.49552,0 -71.66667,32.17115 -71.66667,71.66667c0,39.49552 32.17115,71.66667 71.66667,71.66667c39.49552,0 71.66667,-32.17115 71.66667,-71.66667c0,-39.49552 -32.17115,-71.66667 -71.66667,-71.66667zM86,28.66667c31.74921,0 57.33333,25.58412 57.33333,57.33333c0,28.77035 -21.03186,52.40996 -48.59896,56.60547v-39.51465h16.6849l2.61751,-16.95085h-19.30241v-9.26628c0,-7.04483 2.29501,-13.29752 8.88834,-13.29752h10.58203v-14.79525c-1.86333,-0.25083 -5.7957,-0.79785 -13.22754,-0.79785c-15.523,0 -24.62142,8.19867 -24.62142,26.875v11.2819h-15.95703v16.95085h15.95703v39.37467c-27.11871,-4.57277 -47.68913,-28.01213 -47.68913,-56.46549c0,-31.74921 25.58412,-57.33333 57.33333,-57.33333z"></path>
      </g>
    </g>
  </symbol>
  <symbol version="1.1" xmlns="http://www.w3.org/2000/svg" xmlns:xlink="http://www.w3.org/1999/xlink" viewBox="0 0 172 172" id="defend-family">
    <g  fill-rule="nonzero" stroke="none" stroke-width="1" stroke-linecap="butt" stroke-linejoin="miter" stroke-miterlimit="10" stroke-dasharray="" stroke-dashoffset="0" font-family="none" font-weight="none" font-size="none" text-anchor="none">
      <path d="M0,172v-172h172v172z" fill="none"></path>
      <g>
        <path d="M86,10.2041l-2.25708,1.03931c-23.28959,10.74987 -46.58484,21.49987 -69.875,32.25l4.51416,9.76318c22.5376,-10.40277 45.07945,-20.80768 67.61792,-31.21069c22.53847,10.40302 45.08032,20.80792 67.61792,31.21069l4.51416,-9.76318c-23.29016,-10.75013 -46.58541,-21.50013 -69.875,-32.25zM48.375,53.75c-8.51041,0 -15.57733,3.38494 -20.14575,8.52442c-4.56842,5.13947 -6.72925,11.78114 -6.72925,18.35058c0,6.56944 2.16083,13.21111 6.72925,18.35058c0.85602,0.96302 2.19857,1.49107 3.2229,2.32007c-12.11522,6.27372 -20.70215,18.58082 -20.70215,33.07935h10.75c0,-14.80568 12.06932,-26.875 26.875,-26.875c7.41107,0 13.45172,2.52633 18.15112,7.17016c-1.27083,2.73694 -2.02612,5.75646 -2.02612,8.95484c0,6.00124 2.51933,11.43515 6.52979,15.34815c-7.16381,4.84556 -11.90479,13.04552 -11.90479,22.27685h10.75c0,-8.89318 7.23182,-16.125 16.125,-16.125c8.89318,0 16.125,7.23182 16.125,16.125h10.75c0,-9.23134 -4.74098,-17.43129 -11.90479,-22.27685c4.01046,-3.913 6.52979,-9.3469 6.52979,-15.34815c0,-3.19838 -0.75529,-6.21789 -2.02612,-8.95484c4.6994,-4.64384 10.74006,-7.17016 18.15112,-7.17016c14.80568,0 26.875,12.06932 26.875,26.875h10.75c0,-14.49852 -8.58693,-26.80563 -20.70215,-33.07935c1.02432,-0.829 2.36688,-1.35705 3.2229,-2.32007c4.56842,-5.13947 6.72925,-11.78114 6.72925,-18.35058c0,-6.56944 -2.16083,-13.21111 -6.72925,-18.35058c-4.56842,-5.13948 -11.63534,-8.52442 -20.14575,-8.52442c-8.51041,0 -15.57733,3.38494 -20.14575,8.52442c-4.56842,5.13947 -6.72925,11.78114 -6.72925,18.35058c0,6.56944 2.16083,13.21111 6.72925,18.35058c0.7913,0.89022 2.04588,1.36522 2.98145,2.1416c-2.7802,1.45482 -5.371,3.23724 -7.72656,5.31201c-3.58128,-2.66711 -7.95943,-4.3042 -12.73413,-4.3042c-4.7747,0 -9.15286,1.63709 -12.73413,4.3042c-2.35557,-2.07477 -4.94637,-3.85719 -7.72656,-5.31201c0.93557,-0.77638 2.19015,-1.25139 2.98145,-2.1416c4.56842,-5.13947 6.72925,-11.78114 6.72925,-18.35058c0,-6.56944 -2.16083,-13.21111 -6.72925,-18.35058c-4.56842,-5.13948 -11.63534,-8.52442 -20.14575,-8.52442zM48.375,64.5c5.82291,0 9.506,1.99006 12.10425,4.91308c2.59824,2.92303 4.02075,7.03136 4.02075,11.21192c0,4.18056 -1.42251,8.28889 -4.02075,11.21192c-2.59824,2.92302 -6.28133,4.91308 -12.10425,4.91308c-5.82291,0 -9.50601,-1.99006 -12.10425,-4.91308c-2.59824,-2.92303 -4.02075,-7.03136 -4.02075,-11.21192c0,-4.18056 1.42251,-8.28889 4.02075,-11.21192c2.59824,-2.92302 6.28134,-4.91308 12.10425,-4.91308zM123.625,64.5c5.82291,0 9.506,1.99006 12.10425,4.91308c2.59824,2.92303 4.02075,7.03136 4.02075,11.21192c0,4.18056 -1.42251,8.28889 -4.02075,11.21192c-2.59824,2.92302 -6.28133,4.91308 -12.10425,4.91308c-5.82291,0 -9.506,-1.99006 -12.10425,-4.91308c-2.59824,-2.92303 -4.02075,-7.03136 -4.02075,-11.21192c0,-4.18056 1.42251,-8.28889 4.02075,-11.21192c2.59824,-2.92302 6.28133,-4.91308 12.10425,-4.91308zM86,112.875c6.00208,0 10.75,4.74792 10.75,10.75c0,6.00208 -4.74792,10.75 -10.75,10.75c-6.00208,0 -10.75,-4.74792 -10.75,-10.75c0,-6.00208 4.74792,-10.75 10.75,-10.75z"></path>
      </g>
    </g>
  </symbol>
  <symbol version="1.1" xmlns="http://www.w3.org/2000/svg" xmlns:xlink="http://www.w3.org/1999/xlink" viewBox="0 0 172 172" id="settings">
    <g  fill-rule="nonzero" stroke="none" stroke-width="1" stroke-linecap="butt" stroke-linejoin="miter" stroke-miterlimit="10" stroke-dasharray="" stroke-dashoffset="0" font-family="none" font-weight="none" font-size="none" text-anchor="none">
      <path d="M0,172v-172h172v172z" fill="none"></path>
      <g>
        <path d="M79.98112,14.33333c-6.34314,0.03074 -11.91169,4.22708 -13.68945,10.31608l-0.50391,2.08561l-7.16667,3.00944l-1.79167,-1.0778c-5.64574,-3.18836 -12.72879,-2.18962 -17.27279,2.43555l-8.81836,8.45443c-4.50508,4.6324 -5.35351,11.70645 -2.07161,17.27279l1.51172,1.79167l-3.02344,7.16667l-2.07161,0.50391c-6.26096,1.61597 -10.66471,7.22387 -10.75,13.68945v12.03776c0.03074,6.34314 4.22708,11.91169 10.31608,13.68945l2.08561,0.5039l3.00944,7.16667l-1.0778,1.79167c-3.18836,5.64575 -2.18962,12.72879 2.43555,17.27279l8.45443,8.81836c4.6324,4.50508 11.70645,5.35351 17.27279,2.07161l1.79167,-1.42774l7.16667,3.00944l0.50391,2.07162c1.64252,6.23321 7.24392,10.60322 13.68945,10.68001h12.03776c6.4194,-0.10795 11.98394,-4.47152 13.61946,-10.68001l0.50391,-2.07162l7.16667,-3.00944l1.79167,1.06381c5.56633,3.28189 12.64039,2.43346 17.27278,-2.07162l8.45443,-8.45442c4.50508,-4.6324 5.35351,-11.70646 2.07161,-17.27279l-1.0778,-1.79167l3.02344,-7.16667l2.07161,-0.5039c6.26096,-1.61597 10.66471,-7.22387 10.75,-13.68945v-12.03776c-0.03074,-6.34314 -4.22708,-11.91169 -10.31608,-13.68945l-2.08561,-0.50391l-3.00944,-7.16667l1.0778,-1.79167c3.33555,-5.71199 2.32919,-12.96471 -2.43555,-17.55273l-8.45442,-8.53841c-4.6324,-4.50509 -11.70646,-5.35351 -17.27279,-2.07161l-1.79167,1.42773l-7.16667,-3.00944l-0.5039,-2.07161c-1.64252,-6.23321 -7.24392,-10.60322 -13.68945,-10.68001zM79.98112,28.66667h11.75781l1.42774,5.375c0.5232,2.21338 2.06595,4.04702 4.15723,4.94108l13.89941,5.73893c2.10861,0.8682 4.50453,0.6811 6.4528,-0.50391l4.59115,-3.00944l8.52441,8.10449l-2.93945,4.94108c-1.18501,1.94827 -1.37211,4.34419 -0.50391,6.4528l5.73893,13.89941c0.8621,2.10136 2.66927,3.66965 4.8711,4.22722l5.30501,1.14778v12.03776l-5.375,1.28776c-2.20182,0.55757 -4.00899,2.12586 -4.87109,4.22722l-5.73893,13.91341c-0.86345,2.1046 -0.67645,4.49415 0.5039,6.43881l3.00944,4.59115l-8.17448,8.45442l-4.87109,-2.93945c-1.94827,-1.18501 -4.34419,-1.37211 -6.4528,-0.50391l-13.89941,5.73894c-2.11819,0.87621 -3.68943,2.71279 -4.22722,4.94108l-1.14778,5.375h-11.75781l-1.35775,-5.58496c-0.53778,-2.22828 -2.10903,-4.06487 -4.22722,-4.94108l-13.89941,-5.73893c-0.86347,-0.36821 -1.79086,-0.5632 -2.72949,-0.57389c-1.34718,0.01843 -2.66189,0.41623 -3.79329,1.14778l-4.59115,3.00944l-8.45443,-8.17448l2.93945,-4.94108c1.18501,-1.94827 1.37211,-4.34419 0.50391,-6.4528l-5.73893,-13.89941c-0.8621,-2.10135 -2.66927,-3.66965 -4.87109,-4.22722l-5.375,-1.14778v-11.75781l5.44499,-1.35775c2.20182,-0.55757 4.009,-2.12586 4.87109,-4.22722l5.73893,-13.89941c0.8682,-2.10861 0.6811,-4.50453 -0.50391,-6.4528l-3.00944,-4.59115l8.10449,-8.52441l4.94108,3.00944c1.94827,1.18501 4.34419,1.37211 6.4528,0.50391l13.89941,-5.73893c2.11819,-0.87621 3.68943,-2.7128 4.22722,-4.94108zM84.64225,53.34408c-17.86469,0.61449 -31.92088,15.46822 -31.54952,33.33962c0.37136,17.8714 15.03247,32.12839 32.90727,32.00022c18.03537,-0.03727 32.64665,-14.64855 32.68392,-32.68392c0.00117,-8.90426 -3.63105,-17.42345 -10.05674,-23.58757c-6.42569,-6.16412 -15.0884,-9.43936 -23.98493,-9.06835zM86,67.64941c10.11932,0.03715 18.31343,8.23127 18.35059,18.35059c-0.00216,10.13156 -8.21641,18.34347 -18.34797,18.34275c-10.13156,-0.00072 -18.34464,-8.2138 -18.34536,-18.34536c-0.00072,-10.13156 8.21118,-18.34581 18.34275,-18.34797z"></path>
      </g>
    </g>
  </symbol>
  <symbol version="1.1" xmlns="http://www.w3.org/2000/svg" xmlns:xlink="http://www.w3.org/1999/xlink" viewBox="0 0 172 172" id="family">
    <g  fill-rule="nonzero" stroke="none" stroke-width="1" stroke-linecap="butt" stroke-linejoin="miter" stroke-miterlimit="10" stroke-dasharray="" stroke-dashoffset="0" font-family="none" font-weight="none" font-size="none" text-anchor="none">
      <path d="M0,172v-172h172v172z" fill="none"></path>
      <g>
        <path d="M48.16,6.88c-9.46,0 -17.2,7.74 -17.2,17.2c0,9.46 7.74,17.2 17.2,17.2c9.46,0 17.2,-7.74 17.2,-17.2c0,-9.46 -7.74,-17.2 -17.2,-17.2zM120.4,6.88c-9.46,0 -17.2,7.74 -17.2,17.2c0,9.46 7.74,17.2 17.2,17.2c9.46,0 17.2,-7.74 17.2,-17.2c0,-9.46 -7.74,-17.2 -17.2,-17.2zM48.16,13.76c5.73781,0 10.32,4.58219 10.32,10.32c0,5.73781 -4.58219,10.32 -10.32,10.32c-5.73781,0 -10.32,-4.58219 -10.32,-10.32c0,-5.73781 4.58219,-10.32 10.32,-10.32zM120.4,13.76c5.73781,0 10.32,4.58219 10.32,10.32c0,5.73781 -4.58219,10.32 -10.32,10.32c-5.73781,0 -10.32,-4.58219 -10.32,-10.32c0,-5.73781 4.58219,-10.32 10.32,-10.32zM32.68,44.72c-10.40062,0 -18.92,8.51938 -18.92,18.92v42.355c-0.02687,0.215 -0.02687,0.43 0,0.645c-0.01344,0.3225 0.02688,0.65844 0.1075,0.9675c0.51063,5.20031 4.89125,9.3525 10.2125,9.3525c1.20938,0 2.35156,-0.25531 3.44,-0.645v39.6675c0,5.02563 4.11188,9.1375 9.1375,9.1375h5.805c2.21719,0 4.09844,-1.03469 5.6975,-2.365c1.59906,1.33031 3.48031,2.365 5.6975,2.365h5.805c5.02563,0 9.1375,-4.11187 9.1375,-9.1375v-22.4675c1.08844,0.38969 2.23063,0.645 3.44,0.645v22.36c0,4.70313 3.89688,8.6 8.6,8.6h10.32c4.70313,0 8.6,-3.89687 8.6,-8.6v-22.36c1.20938,0 2.35156,-0.25531 3.44,-0.645v21.285c0,5.65719 4.66281,10.32 10.32,10.32c2.63375,0 5.0525,-1.03469 6.88,-2.6875c1.8275,1.65281 4.24625,2.6875 6.88,2.6875c5.65719,0 10.32,-4.66281 10.32,-10.32v-27.52h8.9225c2.2575,0 4.39406,-1.16906 5.59,-3.01c0,-0.04031 0,-0.06719 0,-0.1075c1.19594,-1.85437 1.46469,-4.07156 0.86,-6.1275c0,-0.04031 0,-0.06719 0,-0.1075l-1.3975,-4.4075c3.48031,0 6.62469,-1.69312 8.2775,-4.4075c1.65281,-2.71437 1.90813,-6.10062 0.86,-9.3525c-3.15781,-9.75562 -13.8675,-42.355 -13.8675,-42.355c-0.645,-1.98875 -1.85437,-4.93156 -4.4075,-7.6325c-2.55312,-2.70094 -6.58437,-5.0525 -11.7175,-5.0525h-6.665c-0.06719,0 -0.14781,0 -0.215,0h-13.76c-5.14656,0 -9.16437,2.35156 -11.7175,5.0525c-1.30344,1.3975 -1.23625,3.58781 0.16125,4.89125c1.3975,1.30344 3.58781,1.23625 4.89125,-0.16125c1.55875,-1.66625 3.48031,-2.9025 6.665,-2.9025h13.76c0.1075,0 0.215,0 0.3225,0h6.5575c3.17125,0 5.10625,1.24969 6.665,2.9025c1.55875,1.65281 2.62031,3.82969 3.01,5.0525c0,0 10.60219,32.51875 13.76,42.2475c0.55094,1.69313 0.3225,2.95625 -0.1075,3.655c-0.43,0.69875 -0.99437,1.1825 -2.4725,1.1825c-1.42437,0 -2.66062,-0.92719 -3.1175,-2.15c-0.01344,-0.02687 0.01344,-0.08062 0,-0.1075c-0.05375,-0.33594 -0.16125,-0.65844 -0.3225,-0.9675l-9.5675,-28.81c-0.51062,-1.59906 -2.09625,-2.60687 -3.7625,-2.365c-1.02125,0.13438 -1.92156,0.72563 -2.45906,1.59906c-0.55094,0.87344 -0.67187,1.94844 -0.33594,2.91594l9.675,29.025c0.06719,0.29563 0.17469,0.59125 0.3225,0.86l4.4075,13.4375v0.1075c0.01344,0.1075 -0.09406,0.16125 -0.1075,0.215h-25.6925c-0.06719,0 -0.14781,0 -0.215,0h-10.32v-20.64c0,-7.56531 -6.19469,-13.76 -13.76,-13.76h-20.64c-7.56531,0 -13.76,6.19469 -13.76,13.76v6.3425c0,0.1075 0,0.215 0,0.3225v49.5575c0,1.31688 -0.95406,2.2575 -2.2575,2.2575h-5.805c-1.31687,0 -2.2575,-0.94062 -2.2575,-2.2575v-43.645c0.01344,-0.99437 -0.41656,-1.935 -1.15562,-2.59344c-0.73906,-0.65844 -1.73344,-0.9675 -2.71438,-0.84656c-1.73344,0.215 -3.02344,1.69313 -3.01,3.44v43.645c0,1.31688 -0.95406,2.2575 -2.2575,2.2575h-5.805c-1.31687,0 -2.2575,-0.94062 -2.2575,-2.2575v-83.7425c0.04031,-0.99437 -0.36281,-1.94844 -1.075,-2.62031c-0.72562,-0.68531 -1.70656,-1.02125 -2.6875,-0.92719c-0.14781,0.02688 -0.29562,0.06719 -0.43,0.1075c-1.59906,0.36281 -2.72781,1.80063 -2.6875,3.44v33.8625c0,0.1075 0,0.215 0,0.3225v0.215c0,1.94844 -1.49156,3.44 -3.44,3.44c-1.86781,0 -3.3325,-1.38406 -3.44,-3.225c0,-0.06719 0,-0.14781 0,-0.215c0.02688,-0.215 0.02688,-0.43 0,-0.645v-42.355c0,-6.665 5.36156,-12.04 12.04,-12.04h30.96c2.58,0 4.93156,0.77938 6.88,2.15c0.99438,0.83313 2.365,1.03469 3.5475,0.52406c1.19594,-0.51063 2.00219,-1.63938 2.08281,-2.92938c0.09406,-1.29 -0.55094,-2.51281 -1.65281,-3.18469c-3.06375,-2.15 -6.83969,-3.44 -10.8575,-3.44zM86,55.04c-7.56531,0 -13.76,6.19469 -13.76,13.76c0,7.56531 6.19469,13.76 13.76,13.76c7.56531,0 13.76,-6.19469 13.76,-13.76c0,-7.56531 -6.19469,-13.76 -13.76,-13.76zM86,61.92c3.84313,0 6.88,3.03688 6.88,6.88c0,3.84313 -3.03687,6.88 -6.88,6.88c-3.84312,0 -6.88,-3.03687 -6.88,-6.88c0,-3.84312 3.03688,-6.88 6.88,-6.88zM75.68,92.88h20.64c3.84313,0 6.88,3.03688 6.88,6.88v23.435c0,0.1075 0,0.215 0,0.3225v0.3225c0,1.94844 -1.49156,3.44 -3.44,3.44h-3.44c-1.89469,0 -3.44,1.54531 -3.44,3.44v25.8c0,0.98094 -0.73906,1.72 -1.72,1.72h-10.32c-0.98094,0 -1.72,-0.73906 -1.72,-1.72v-25.8c0,-1.89469 -1.54531,-3.44 -3.44,-3.44h-3.44c-1.94844,0 -3.44,-1.49156 -3.44,-3.44v-24.08c0,-3.84312 3.03688,-6.88 6.88,-6.88zM110.08,127.28h6.88v27.52c0,1.94844 -1.49156,3.44 -3.44,3.44c-1.94844,0 -3.44,-1.49156 -3.44,-3.44zM123.84,127.28h6.88v27.52c0,1.94844 -1.49156,3.44 -3.44,3.44c-1.94844,0 -3.44,-1.49156 -3.44,-3.44z"></path>
      </g>
    </g>
  </symbol>
  <symbol version="1.1" xmlns="http://www.w3.org/2000/svg" xmlns:xlink="http://www.w3.org/1999/xlink" viewBox="0 0 172 172" id="dashboard-layout-ok">
    <g  fill-rule="nonzero" stroke="none" stroke-width="1" stroke-linecap="butt" stroke-linejoin="miter" stroke-miterlimit="10" stroke-dasharray="" stroke-dashoffset="0" font-family="none" font-weight="none" font-size="none" text-anchor="none">
      <path d="M0,172v-172h172v172z" fill="none"></path>
      <g>
        <path d="M37.625,21.5c-8.84188,0 -16.125,7.28312 -16.125,16.125v10.75c0,8.84188 7.28312,16.125 16.125,16.125h28.66667c8.84188,0 16.125,-7.28312 16.125,-16.125v-10.75c0,-8.84188 -7.28312,-16.125 -16.125,-16.125zM105.70833,21.5c-8.84188,0 -16.125,7.28312 -16.125,16.125v46.58333c0,8.84188 7.28312,16.125 16.125,16.125h28.66667c8.84188,0 16.125,-7.28312 16.125,-16.125v-46.58333c0,-8.84188 -7.28312,-16.125 -16.125,-16.125zM37.625,32.25h28.66667c3.03329,0 5.375,2.34171 5.375,5.375v10.75c0,3.03329 -2.34171,5.375 -5.375,5.375h-28.66667c-3.03329,0 -5.375,-2.34171 -5.375,-5.375v-10.75c0,-3.03329 2.34171,-5.375 5.375,-5.375zM105.70833,32.25h28.66667c3.03329,0 5.375,2.34171 5.375,5.375v46.58333c0,3.03329 -2.34171,5.375 -5.375,5.375h-28.66667c-3.03329,0 -5.375,-2.34171 -5.375,-5.375v-46.58333c0,-3.03329 2.34171,-5.375 5.375,-5.375zM37.625,71.66667c-8.84188,0 -16.125,7.28312 -16.125,16.125v46.58333c0,8.84188 7.28312,16.125 16.125,16.125h28.66667c8.84188,0 16.125,-7.28312 16.125,-16.125v-46.58333c0,-8.84188 -7.28312,-16.125 -16.125,-16.125zM37.625,82.41667h28.66667c3.03329,0 5.375,2.34171 5.375,5.375v46.58333c0,3.03329 -2.34171,5.375 -5.375,5.375h-28.66667c-3.03329,0 -5.375,-2.34171 -5.375,-5.375v-46.58333c0,-3.03329 2.34171,-5.375 5.375,-5.375zM105.70833,107.5c-8.84188,0 -16.125,7.28312 -16.125,16.125v10.75c0,8.84188 7.28312,16.125 16.125,16.125h28.66667c8.84188,0 16.125,-7.28312 16.125,-16.125v-10.75c0,-8.84188 -7.28312,-16.125 -16.125,-16.125zM105.70833,118.25h28.66667c3.03329,0 5.375,2.34171 5.375,5.375v10.75c0,3.03329 -2.34171,5.375 -5.375,5.375h-28.66667c-3.03329,0 -5.375,-2.34171 -5.375,-5.375v-10.75c0,-3.03329 2.34171,-5.375 5.375,-5.375z"></path>
      </g>
    </g>
  </symbol>

  <symbol version="1.1" xmlns="http://www.w3.org/2000/svg" xmlns:xlink="http://www.w3.org/1999/xlink" viewBox="0 0 172 172" id="no-entry">
    <g fill-rule="nonzero" stroke="none" stroke-width="1" stroke-linecap="butt" stroke-linejoin="miter" stroke-miterlimit="10" stroke-dasharray="" stroke-dashoffset="0" font-family="none" font-weight="none" font-size="none" text-anchor="none">
      <path d="M0,172v-172h172v172z" fill="none"></path>
      <g>
        <path d="M86,14.33333c-39.41667,0 -71.66667,32.25 -71.66667,71.66667c0,39.41667 32.25,71.66667 71.66667,71.66667c39.41667,0 71.66667,-32.25 71.66667,-71.66667c0,-39.41667 -32.25,-71.66667 -71.66667,-71.66667zM129,93.16667h-86v-14.33333h86z"></path>
      </g>
    </g>
  </symbol>
  <symbol version="1.1" xmlns="http://www.w3.org/2000/svg" xmlns:xlink="http://www.w3.org/1999/xlink" viewBox="0 0 172 172" id="check-circle-fill">
    <g fill-rule="nonzero" stroke="none" stroke-width="1" stroke-linecap="butt" stroke-linejoin="miter" stroke-miterlimit="10" stroke-dasharray="" stroke-dashoffset="0" font-family="none" font-weight="none" font-size="none" text-anchor="none">
      <path d="M0,172v-172h172v172z" fill="none"></path>
      <g>
        <path d="M148.50824,37.582l-65.65584,77.47224l-33.25448,-31.0116l4.68872,-5.03272l27.98096,26.0924l61.73424,-72.842c-14.46176,-15.59696 -35.1052,-25.38032 -58.00184,-25.38032c-43.62952,0 -79.12,35.49048 -79.12,79.12c0,43.62952 35.49048,79.12 79.12,79.12c43.62952,0 79.12,-35.49048 79.12,-79.12c0,-18.22856 -6.21264,-35.02608 -16.61176,-48.418z"></path>
      </g>
    </g>
  </symbol>
  <symbol version="1.1" xmlns="http://www.w3.org/2000/svg" xmlns:xlink="http://www.w3.org/1999/xlink" viewBox="0 0 172 172" id="check-circle">
    <g fill-rule="nonzero" stroke="none" stroke-width="1" stroke-linecap="butt" stroke-linejoin="miter" stroke-miterlimit="10" stroke-dasharray="" stroke-dashoffset="0" font-family="none" font-weight="none" font-size="none" text-anchor="none">
      <path d="M0,172v-172h172v172z" fill="none"></path>
      <g>
        <path d="M86,16.125c-38.6958,0 -69.875,31.1792 -69.875,69.875c0,38.6958 31.1792,69.875 69.875,69.875c38.6958,0 69.875,-31.1792 69.875,-69.875c0,-7.5166 -1.00781,-15.01221 -3.69531,-22.00391l-8.73437,8.56641c1.0708,4.3042 1.67969,8.6084 1.67969,13.4375c0,32.7959 -26.3291,59.125 -59.125,59.125c-32.7959,0 -59.125,-26.3291 -59.125,-59.125c0,-32.7959 26.3291,-59.125 59.125,-59.125c16.125,0 30.61231,6.42481 40.81641,16.62891l7.55859,-7.55859c-12.3667,-12.3667 -29.5625,-19.82031 -48.375,-19.82031zM146.63672,39.13672l-60.63672,60.63672l-23.01172,-23.01172l-7.72656,7.72656l26.875,26.875l3.86328,3.69531l3.86328,-3.69531l64.5,-64.5z"></path>
      </g>
    </g>
  </symbol>
  <symbol version="1.1" xmlns="http://www.w3.org/2000/svg" xmlns:xlink="http://www.w3.org/1999/xlink" viewBox="0 0 172 172" id="data-pending">
    <g fill-rule="nonzero" stroke="none" stroke-width="1" stroke-linecap="butt" stroke-linejoin="miter" stroke-miterlimit="10" stroke-dasharray="" stroke-dashoffset="0" font-family="none" font-weight="none" font-size="none" text-anchor="none">
      <path d="M0,172v-172h172v172z" fill="none"></path>
      <g>
        <path d="M35.83333,21.5c-7.90483,0 -14.33333,6.4285 -14.33333,14.33333v100.33333c0,7.90483 6.4285,14.33333 14.33333,14.33333h40.04655c-1.83467,-4.52217 -3.09981,-9.32383 -3.72331,-14.33333h-36.32324v-100.33333h29.89844c2.95983,8.342 10.9229,14.33333 20.26823,14.33333c9.34533,0 17.3084,-5.99133 20.26823,-14.33333h29.89844v36.32324c5.0095,0.6235 9.81117,1.88865 14.33333,3.72331v-40.04655c0,-7.90483 -6.4285,-14.33333 -14.33333,-14.33333h-43v7.16667c0,3.94883 -3.21783,7.16667 -7.16667,7.16667c-3.94883,0 -7.16667,-3.21783 -7.16667,-7.16667v-7.16667zM129,86c-23.65,0 -43,19.35 -43,43c0,23.65 19.35,43 43,43c23.65,0 43,-19.35 43,-43c0,-23.65 -19.35,-43 -43,-43zM129,100.33333c15.76667,0 28.66667,12.9 28.66667,28.66667c0,15.76667 -12.9,28.66667 -28.66667,28.66667c-15.76667,0 -28.66667,-12.9 -28.66667,-28.66667c0,-15.76667 12.9,-28.66667 28.66667,-28.66667zM132.06543,108.33985l-11.46386,21.65397l15.0332,15.0332l7.60059,-7.60059l-9.42025,-9.42025l7.75456,-14.64128z"></path>
      </g>
    </g>
  </symbol>
  <symbol version="1.1" xmlns="http://www.w3.org/2000/svg" xmlns:xlink="http://www.w3.org/1999/xlink" viewBox="0 0 172 172" id="add-user">
    <g fill-rule="nonzero" stroke="none" stroke-width="1" stroke-linecap="butt" stroke-linejoin="miter" stroke-miterlimit="10" stroke-dasharray="" stroke-dashoffset="0" font-family="none" font-weight="none" font-size="none" text-anchor="none">
      <path d="M0,172v-172h172v172z" fill="none"></path>
      <g>
        <path d="M107.36563,112.60625c-6.85313,-2.41875 -13.975,-3.7625 -21.36563,-3.7625v0v0c-22.0375,0 -42.4625,11.95938 -53.34687,31.04063c-1.075,1.88125 -0.40313,4.43437 1.47813,5.50937c0.67188,0.40312 1.34375,0.5375 2.01563,0.5375c1.34375,0 2.82187,-0.67187 3.49375,-2.01562c9.54062,-16.6625 27.27813,-27.00938 46.35938,-27.00938v0v0c6.31562,0 12.63125,1.075 18.54375,3.35938c0.40312,0.13437 0.94062,0.26875 1.34375,0.26875c1.6125,0 3.225,-0.94062 3.7625,-2.6875c0.80625,-2.15 -0.26875,-4.43437 -2.28437,-5.24062zM86,36.28125c-17.06562,0 -30.90625,13.84062 -30.90625,30.90625c0,17.06562 13.84063,30.90625 30.90625,30.90625c17.06562,0 30.90625,-13.84063 30.90625,-30.90625c0,-17.06563 -13.84063,-30.90625 -30.90625,-30.90625zM86,90.03125c-12.63125,0 -22.84375,-10.2125 -22.84375,-22.84375c0,-12.63125 10.2125,-22.84375 22.84375,-22.84375c12.63125,0 22.84375,10.2125 22.84375,22.84375c0,12.63125 -10.2125,22.84375 -22.84375,22.84375zM123.49063,123.49063c-10.48125,10.48125 -10.48125,27.54687 0,38.02813c10.48125,10.48125 27.54687,10.48125 38.02813,0c10.48125,-10.48125 10.48125,-27.54687 0,-38.02813c-10.61563,-10.61563 -27.54687,-10.61563 -38.02813,0zM151.70938,146.46875h-5.375v5.375c0,2.28438 -1.74687,4.03125 -4.03125,4.03125c-2.28437,0 -4.03125,-1.74687 -4.03125,-4.03125v-5.375h-5.375c-2.28437,0 -4.03125,-1.74687 -4.03125,-4.03125c0,-2.28438 1.74688,-4.03125 4.03125,-4.03125h5.375v-5.375c0,-2.28438 1.74688,-4.03125 4.03125,-4.03125c2.28438,0 4.03125,1.74687 4.03125,4.03125v5.375h5.375c2.28438,0 4.03125,1.74687 4.03125,4.03125c0,2.28438 -1.74687,4.03125 -4.03125,4.03125z"></path>
      </g>
    </g>
  </symbol>
  <symbol version="1.1" xmlns="http://www.w3.org/2000/svg" xmlns:xlink="http://www.w3.org/1999/xlink" viewBox="0 0 172 172" id="add">
    <g fill-rule="nonzero" stroke="none" stroke-width="1" stroke-linecap="butt" stroke-linejoin="miter" stroke-miterlimit="10" stroke-dasharray="" stroke-dashoffset="0" font-family="none" font-weight="none" font-size="none" text-anchor="none">
      <path d="M0,172v-172h172v172z" fill="none"></path>
      <g>
        <path d="M86,17.2c-37.9948,0 -68.8,30.8052 -68.8,68.8c0,37.9948 30.8052,68.8 68.8,68.8c37.9948,0 68.8,-30.8052 68.8,-68.8c0,-37.9948 -30.8052,-68.8 -68.8,-68.8zM114.66667,91.73333h-22.93333v22.93333c0,3.17053 -2.56853,5.73333 -5.73333,5.73333c-3.1648,0 -5.73333,-2.5628 -5.73333,-5.73333v-22.93333h-22.93333c-3.1648,0 -5.73333,-2.5628 -5.73333,-5.73333c0,-3.17053 2.56853,-5.73333 5.73333,-5.73333h22.93333v-22.93333c0,-3.17053 2.56853,-5.73333 5.73333,-5.73333c3.1648,0 5.73333,2.5628 5.73333,5.73333v22.93333h22.93333c3.1648,0 5.73333,2.5628 5.73333,5.73333c0,3.17053 -2.56853,5.73333 -5.73333,5.73333z"></path>
      </g>
    </g>
  </symbol>
   <symbol version="1.1" xmlns="http://www.w3.org/2000/svg" xmlns:xlink="http://www.w3.org/1999/xlink" viewBox="0 0 172 172" id="camera">
    <g fill-rule="nonzero" stroke="none" stroke-width="1" stroke-linecap="butt" stroke-linejoin="miter" stroke-miterlimit="10" stroke-dasharray="" stroke-dashoffset="0" font-family="none" font-weight="none" font-size="none" text-anchor="none">
      <path d="M0,172v-172h172v172z" fill="none"></path>
      <g>
        <path d="M70.15495,22.93333c-4.34587,0 -8.31369,2.45082 -10.25729,6.33802l-2.26198,4.52396c-1.9436,3.88147 -5.91716,6.33802 -10.25729,6.33802h-24.44505c-6.33533,0 -11.46667,5.13133 -11.46667,11.46667v74.53333c0,6.33533 5.13133,11.46667 11.46667,11.46667h126.13333c6.33533,0 11.46667,-5.13133 11.46667,-11.46667v-74.53333c0,-6.33533 -5.13133,-11.46667 -11.46667,-11.46667h-24.44505c-4.34587,0 -8.31369,-2.45082 -10.25729,-6.33802l-2.26198,-4.52396c-1.9436,-3.88147 -5.91716,-6.33802 -10.25729,-6.33802zM34.4,28.66667c-3.1648,0 -5.73333,2.56853 -5.73333,5.73333h17.2c0,-3.1648 -2.56853,-5.73333 -5.73333,-5.73333zM86,45.86667c22.13067,0 40.13333,18.00267 40.13333,40.13333c0,22.13067 -18.00267,40.13333 -40.13333,40.13333c-22.13067,0 -40.13333,-18.00267 -40.13333,-40.13333c0,-22.13067 18.00267,-40.13333 40.13333,-40.13333zM137.6,51.6c3.1648,0 5.73333,2.56853 5.73333,5.73333c0,3.1648 -2.56853,5.73333 -5.73333,5.73333c-3.1648,0 -5.73333,-2.56853 -5.73333,-5.73333c0,-3.1648 2.56853,-5.73333 5.73333,-5.73333zM86,57.33333c-15.83216,0 -28.66667,12.8345 -28.66667,28.66667c0,15.83216 12.8345,28.66667 28.66667,28.66667c15.83216,0 28.66667,-12.8345 28.66667,-28.66667c0,-15.83216 -12.8345,-28.66667 -28.66667,-28.66667z"></path>
      </g>
    </g>
  </symbol>
  <symbol version="1.1" xmlns="http://www.w3.org/2000/svg" xmlns:xlink="http://www.w3.org/1999/xlink" viewBox="0 0 172 172" id="upload">
    <g fill-rule="nonzero" stroke="none" stroke-width="1" stroke-linecap="butt" stroke-linejoin="miter" stroke-miterlimit="10" stroke-dasharray="" stroke-dashoffset="0" font-family="none" font-weight="none" font-size="none" text-anchor="none">
      <path d="M0,172v-172h172v172z" fill="none"></path>
      <g>
        <path d="M34.4,17.2c-6.33533,0 -11.46667,5.13133 -11.46667,11.46667v97.46667c0,6.33533 5.13133,11.46667 11.46667,11.46667h45.86667v-72.15938l-13.14636,13.14636c-2.24173,2.24173 -5.86556,2.24173 -8.10729,0c-2.24174,-2.24173 -2.24174,-5.86556 0,-8.10729l22.93333,-22.93333c1.118,-1.118 2.58591,-1.67969 4.05364,-1.67969c1.46773,0 2.93564,0.56169 4.05364,1.67969l22.93333,22.93333c2.24173,2.24173 2.24173,5.86556 0,8.10729c-2.24173,2.24173 -5.86556,2.24173 -8.10729,0l-13.14636,-13.14636v72.15938h45.86667c6.33533,0 11.46667,-5.13133 11.46667,-11.46667v-97.46667c0,-6.33533 -5.13133,-11.46667 -11.46667,-11.46667zM91.73333,137.6h-11.46667v22.93333c0,3.1648 2.56853,5.73333 5.73333,5.73333c3.1648,0 5.73333,-2.56853 5.73333,-5.73333z"></path>
      </g>
    </g>
  </symbol>
  <symbol version="1.1" xmlns="http://www.w3.org/2000/svg" xmlns:xlink="http://www.w3.org/1999/xlink" viewBox="0 0 172 172" id="save">
    <g fill-rule="nonzero" stroke="none" stroke-width="1" stroke-linecap="butt" stroke-linejoin="miter" stroke-miterlimit="10" stroke-dasharray="" stroke-dashoffset="0" font-family="none" font-weight="none" font-size="none" text-anchor="none">
      <path d="M0,172v-172h172v172z" fill="none"></path>
      <g>
        <path d="M34.4,22.93333c-6.33533,0 -11.46667,5.13133 -11.46667,11.46667v103.2c0,6.33533 5.13133,11.46667 11.46667,11.46667h103.2c6.33533,0 11.46667,-5.13133 11.46667,-11.46667v-91.73333l-22.93333,-22.93333h-11.46667v34.4c0,3.1648 -2.56853,5.73333 -5.73333,5.73333h-51.6c-3.1648,0 -5.73333,-2.56853 -5.73333,-5.73333v-34.4zM91.73333,22.93333v28.66667h11.46667v-28.66667zM57.33333,91.73333h57.33333c6.33533,0 11.46667,5.13133 11.46667,11.46667v34.4h-80.26667v-34.4c0,-6.33533 5.13133,-11.46667 11.46667,-11.46667z"></path>
      </g>
    </g>
  </symbol>
</svg>