<svg version="1.1" xmlns="http://www.w3.org/2000/svg" xmlns:xlink="http://www.w3.org/1999/xlink" viewBox="0 0 172 172"><g fill="none" fill-rule="nonzero" stroke="none" stroke-width="1" stroke-linecap="butt" stroke-linejoin="miter" stroke-miterlimit="10" stroke-dasharray="" stroke-dashoffset="0" font-family="none" font-weight="none" font-size="none" text-anchor="none" style="mix-blend-mode: normal"><path d="M0,172v-172h172v172z" fill="none"></path><g fill="#ffffff"><path d="M22.93333,22.93333c-6.33533,0 -11.46667,5.13133 -11.46667,11.46667v22.93333v91.73333h49.9987c-0.68227,-1.08933 -1.20812,-1.99206 -1.50052,-2.51953c-1.74867,-2.8036 -2.63151,-5.811 -2.63151,-8.94714h-34.4v-80.26667h126.13333v41.83542c4.21973,2.24173 8.03813,4.81367 11.46667,7.50261v-60.80469v-11.46667c0,-6.33533 -5.13133,-11.46667 -11.46667,-11.46667zM45.86667,74.53333c-3.16643,0 -5.73333,2.5669 -5.73333,5.73333c0,3.16643 2.5669,5.73333 5.73333,5.73333c3.16643,0 5.73333,-2.5669 5.73333,-5.73333c0,-3.16643 -2.5669,-5.73333 -5.73333,-5.73333zM68.8,74.53333c-3.1648,0 -5.73333,2.56853 -5.73333,5.73333c0,3.1648 2.56853,5.73333 5.73333,5.73333h51.6c3.1648,0 5.73333,-2.56853 5.73333,-5.73333c0,-3.1648 -2.56853,-5.73333 -5.73333,-5.73333zM45.86667,97.46667c-3.16643,0 -5.73333,2.5669 -5.73333,5.73333c0,3.16643 2.5669,5.73333 5.73333,5.73333c3.16643,0 5.73333,-2.5669 5.73333,-5.73333c0,-3.16643 -2.5669,-5.73333 -5.73333,-5.73333zM68.8,97.46667c-3.1648,0 -5.73333,2.56853 -5.73333,5.73333c0,3.1648 2.56853,5.73333 5.73333,5.73333h8.65599c4.94213,-4.20827 10.89243,-8.3076 17.7151,-11.46667zM120.4,103.2c-30.96,0 -50.55859,31.28698 -50.55859,31.28698c-0.602,0.90587 -1.04141,1.93769 -1.04141,3.11302c0,1.18107 0.44487,2.21835 1.05261,3.12422c0,0 16.14739,31.27578 50.54739,31.27578c34.4,0 50.5362,-31.26458 50.5362,-31.26458c0.61347,-0.9116 1.0638,-1.94862 1.0638,-3.13542c0,-1.18107 -0.43914,-2.21262 -1.05261,-3.12422c0,0 -19.58739,-31.27578 -50.54739,-31.27578zM120.4,114.66667c12.66493,0 22.93333,10.2684 22.93333,22.93333c0,12.66493 -10.2684,22.93333 -22.93333,22.93333c-12.66493,0 -22.93333,-10.2684 -22.93333,-22.93333c0,-12.66493 10.2684,-22.93333 22.93333,-22.93333zM120.4,126.13333c-6.33533,0 -11.46667,5.13133 -11.46667,11.46667c0,6.33533 5.13133,11.46667 11.46667,11.46667c6.33533,0 11.46667,-5.13133 11.46667,-11.46667c0,-6.33533 -5.13133,-11.46667 -11.46667,-11.46667z"></path></g></g></svg>